<?xml version="1.0" standalone="no"?>
<!DOCTYPE svg PUBLIC "-//W3C//DTD SVG 1.1//EN" "http://www.w3.org/Graphics/SVG/1.1/DTD/svg11.dtd" >
<!--
2016-2-8: Created.
-->
<svg xmlns="http://www.w3.org/2000/svg">
<metadata>
Created by FontForge 20120731 at Mon Feb  8 00:23:51 2016
 By Bob D'Errico,,,
Created by Bob D'Errico,,, with FontForge 2.0 (http://fontforge.sf.net)
</metadata>
<defs>
<font id="technology-icons" horiz-adv-x="512" >
  <font-face 
    font-family="technology-icons"
    font-weight="500"
    font-stretch="normal"
    units-per-em="512"
    panose-1="2 0 6 3 0 0 0 0 0 0"
    ascent="448"
    descent="-64"
    bbox="-0.351167 -64 705 448.5"
    underline-thickness="25.6"
    underline-position="-51.2"
    unicode-range="U+F101-F16F"
  />
    <missing-glyph />
    <glyph glyph-name="uniF101" unicode="&#xf101;" 
d="M0 448h512v-512h-512v512zM235 86h48l-79 244h-57l-78 -244h46l21 69h77zM449 161c1 4 2 11 2 19c0 39 -20 86 -77 86s-86 -46 -86 -95c0 -54 34 -89 91 -89c25 0 47 5 62 11l-7 31c-13 -5 -28 -8 -49 -8c-28 0 -53 13 -54 45h118zM174 294c4 -14 8 -30 13 -45l19 -60
h-63l19 60c4 14 7 31 11 45h1zM372 236c30 0 36 -27 36 -43h-77c2 18 13 43 41 43z" />
    <glyph glyph-name="uniF12B" unicode="&#xf12b;" horiz-adv-x="459" 
d="M0 354l226 81l233 -79l-38 -299l-195 -108l-192 106zM226 379v0l-141 -314l53 1l28 71h60v0h67l31 -72l50 -1l-148 315v0zM227 278l48 -99h-46h-2h-41l41 99v0z" />
    <glyph glyph-name="uniF153" unicode="&#xf153;" horiz-adv-x="501" 
d="M-8 448zM482 445v0h4v0h1h1h2v-1h2h1l1 -1v0l1 -1v0l1 -1c1 -3 1 -4 2 -7v-1c0 -1 1 -3 1 -4v-3h1c1 -3 0 -5 0 -8c0 -1 1 -3 1 -4v-2v-6v0v-1c0 -2 -1 -4 -1 -6v0v-2s-1 -1 -1 -2v0v-1c0 -2 -1 -4 -2 -6v0c0 -1 -1 -3 -1 -4v-1c0 -1 -1 -1 -1 -2l-1 -1v0v-1
c-1 -1 -1 -3 -2 -4v0v0c-1 -1 -1 -3 -2 -4s-2 -3 -3 -4s-1 -2 -2 -3l-1 -1c-1 1 -1 3 -2 4s-1 2 -2 3l-1 1v0v0c-3 4 -7 7 -11 10v0v0l-2 1c-2 1 -3 2 -5 3l-1 1v0c-1 1 -2 2 -4 3v0v0l1 -1v0l1 -1l2 -1v0c1 0 1 -1 1 -1l2 -2v0h1c1 -1 0 -1 1 -2s1 0 2 -1l3 -3v0v0
c1 -1 1 -2 2 -3v0v0c1 -2 3 -5 3 -7l1 -1c1 -2 1 -3 1 -5s1 -4 1 -5l-4 -4l-1 -1c-2 -3 -5 -5 -8 -7v0l-1 -1v0c-3 -2 -5 -4 -8 -6c-3 -3 -7 -6 -10 -8c-2 -2 -5 -3 -7 -5l-18 -12c-3 -2 -5 -4 -8 -6s-6 -3 -9 -5c-5 -3 -9 -7 -14 -10l-1 -1c-1 0 -2 -1 -3 -1s0 -2 -1 -2
s-1 -1 -2 -1c-6 -4 -11 -7 -17 -11c-3 -2 -7 -5 -10 -7l-2 -2l-12 -9h-1c-2 -2 -5 -4 -7 -6s-4 -2 -6 -4l-1 -1l-3 -3l-1 -1v0c-13 -11 -25 -23 -37 -34l-9 -9c-1 -1 -2 -1 -3 -2v0l-8 -8l-3 -3c-2 -2 -3 -2 -5 -4v0l-3 -3c-3 -3 -7 -6 -10 -9c-9 -7 -19 -16 -29 -24
c-1 0 -3 0 -4 -1v0c-1 -1 -3 -1 -4 -2l-1 -1v0c-3 -2 -6 -4 -10 -5c-1 0 -1 -1 -2 -1c-2 -1 -3 -1 -5 -2l-1 -1v0h-1c-1 0 -1 -1 -2 -1h-1v0h-1l-1 -1h-2v-1h-1c-1 0 -3 -1 -4 -1s-3 -1 -4 -1c-5 -1 -11 -1 -16 -2h-2c-2 0 -4 -1 -6 -1c-3 0 -6 -1 -9 -1v0
c-3 0 -7 -1 -10 -2h-1c-3 -1 -6 -1 -10 -2c-1 0 -3 -2 -4 -2l-6 -2l-11 -3l1 1l-1 -1c-6 -7 -10 -13 -15 -19l-1 -1v0c-4 -5 -8 -9 -11 -13c-1 -2 -2 -3 -3 -5l-1 -1v0c-3 -4 -5 -8 -8 -12l-2 -2l-6 -9h-1c-1 -1 0 -1 -1 -2c-3 -4 -6 -9 -8 -12v0v-1v0c-1 -1 -1 -2 -2 -3
s-2 -3 -3 -4v-1c-1 -1 -1 0 -1 -1v-1c-1 -1 -2 -3 -2 -3l-31 -31l-1 1s2 3 3 5c1 1 2 3 3 5l1 1c1 2 3 4 4 6c0 1 1 1 1 2l1 1c0 1 0 2 1 3h1c3 5 5 10 9 16c0 1 2 1 2 2c1 1 1 2 2 3s1 3 2 4c2 4 5 7 8 11s6 9 9 14c7 9 14 19 22 29l2 2v1c2 2 3 5 5 7c4 5 7 9 11 14v1v1
l-1 1v1v1v3v0c0 1 -1 2 -1 3v1v1c0 1 1 2 1 3c0 2 1 3 1 5v1v2s2 2 2 3v1c1 1 1 4 2 5v0c1 2 1 3 2 5l4 8s2 3 3 5s3 4 4 6v1l1 1c1 2 2 3 3 5c1 1 3 4 4 5l1 1v1c0 1 1 1 2 2v0c1 2 3 4 5 6l6 9l1 1c1 1 2 3 3 4s2 3 3 4l1 1l1 1v0c3 3 5 6 8 9l4 4c0 1 1 1 1 2v0l4 4v0v1
l1 1l2 2l2 2l3 3v0l1 1c4 4 7 8 12 13v0l3 3l1 1l1 1v0c3 4 6 7 9 10l1 1l1 1l1 1c2 2 4 3 6 5v1c0 1 1 1 1 2c5 5 11 10 16 15l1 1h1v1c1 1 2 1 3 2l6 6l2 2s2 1 3 2v1c1 1 2 1 3 2l1 1c1 0 1 2 2 2l1 1c3 3 7 5 10 8c2 1 3 3 5 4v0c1 0 1 1 2 1l3 3s2 1 3 2c1 0 1 2 2 2h1
c2 2 4 3 6 5c3 3 8 6 12 8v0l1 1c1 1 3 1 4 2v1h1v0c1 0 2 2 2 2c1 0 2 0 3 1v0v1h1v0c3 2 6 5 10 6v0c1 0 1 2 2 2c1 1 1 1 2 1s1 1 2 1c1 1 2 1 3 2l15 9c1 1 2 1 3 2h2c1 0 1 2 2 2c3 1 5 3 8 4h1v1c3 2 6 4 9 5h1v0v0c5 3 11 5 16 8c4 2 7 3 11 5c2 1 3 2 5 3h1l6 3h1v0
c1 0 2 1 3 1c2 1 3 2 5 3c1 0 2 1 3 1l2 1h1v0c5 2 10 4 14 6c3 1 5 2 8 3v0c1 1 2 0 3 1c1 0 2 1 3 1c4 1 8 2 11 3v0v0c0 -1 -1 -3 -1 -4v0v0v-4v-1l-1 -1v-6c0 0 -1 0 -1 -1v-1v0v-2v0c0 -2 -1 -3 0 -3v1h1c0 1 1 2 1 3v0v2s1 1 1 2v0h1c1 1 -1 1 0 2c0 1 2 2 2 3
c1 4 2 7 4 10c0 1 1 2 1 3c2 0 3 1 4 1s3 1 4 1h2c2 0 3 1 5 1v0l1 1c2 1 6 2 8 1h3v0h2v0zM441 411c0 -1 -1 -1 -1 -1v1h1zM458 338v0zM454 335h1h-1zM143 229v-1v1zM137 220v0zM275 197v0zM242 166v0zM227 154v0v0zM225 153h1h-1v0zM224 152v0zM224 152v0v0zM224 151v0z
M215 146v0zM214 145h1h-1zM212 144v0zM210 144v0zM207 141v0v0zM206 140v0v0zM206 140v0zM197 136v0zM196 136v0zM196 135v0zM193 134v0zM189 133v0v0z" />
    <glyph glyph-name="uniF14B" unicode="&#xf14b;" horiz-adv-x="482" 
d="M480 390c7 -24 -1 -51 -20 -68c-7 -7 -16 -11 -24 -17c1 -8 5 -15 8 -22c21 -48 24 -103 11 -153c-17 -58 -56 -107 -108 -137c-21 -11 -43 -22 -66 -26c-24 -5 -48 -5 -72 -3c-18 3 -37 6 -54 12c-59 19 -108 64 -134 120c-19 42 -26 89 -18 134c8 48 31 94 66 127
c43 44 104 69 166 67c38 0 75 -11 109 -28c7 12 13 24 24 32c17 12 39 19 59 13c25 -6 46 -26 53 -51zM405 136c13 37 12 77 0 114c-20 59 -72 108 -134 122c-18 4 -36 7 -54 4c-36 -3 -70 -18 -98 -40c-23 -19 -42 -43 -54 -71c-14 -32 -20 -68 -13 -103
c7 -37 24 -72 51 -98c34 -36 84 -55 133 -55c21 2 42 6 62 14c50 19 90 62 107 113zM433 355c8 1 20 7 17 17c-2 6 0 14 0 20c-2 10 -13 14 -22 14h-48c3 -4 7 -9 10 -14c14 0 28 1 42 0v-6c-12 -1 -25 0 -37 0c4 -4 7 -10 11 -14c10 0 19 1 29 -1c-3 -3 -7 -4 -11 -4h-44
c3 -4 7 -8 10 -13c14 0 29 -1 43 1zM215 296c11 6 25 6 36 0c9 -5 15 -13 21 -21c34 -49 70 -98 104 -148h-205c11 15 23 30 33 45h72c-14 21 -29 41 -44 61c-26 -35 -53 -70 -78 -106h-67c34 48 69 96 103 143c7 10 14 20 25 26z" />
    <glyph glyph-name="uniF12C" unicode="&#xf12c;" horiz-adv-x="414" 
d="M207 331v-80l-138 -81v-116c9 5 138 79 138 79v-79l-207 -118v276l207 119zM414 448v-236l-68 39l-1 78l-69 -38l-69 40zM207 54v79l138 -78v116l-138 80v80l207 -119v-276zM138 291l-69 39v-79l-69 -39v236s141 -79 207 -117zM106 192l101 -59l-69 -39l-69 39v37z
M207 133l102 59l36 -21v-38c-23 -13 -68 -39 -68 -39z" />
    <glyph glyph-name="uniF111" unicode="&#xf111;" horiz-adv-x="507" 
d="M260 172c17 0 29 -3 37 -10s13 -17 13 -31s-5 -24 -13 -31s-20 -10 -37 -10h-48v82h48zM287 236c-7 -6 -17 -8 -30 -8h-45v67h45c13 0 23 -3 30 -9s10 -14 10 -25s-3 -19 -10 -25zM425 448c45 0 82 -37 82 -82v-347c0 -45 -37 -82 -82 -82h-343c-45 0 -82 37 -82 82v347
c0 45 37 82 82 82h343zM361 56c21 15 31 38 31 69c0 20 -5 36 -15 50s-22 23 -40 28c14 5 24 13 31 24s11 25 11 40c0 29 -10 50 -30 63s-52 20 -96 20h-123v-316h136c42 0 74 7 95 22z" />
    <glyph glyph-name="uniF164" unicode="&#xf164;" horiz-adv-x="474" 
d="M402 371c-35 -32 2 -115 -88 -114c-21 47 25 114 88 114zM370 177c-10 2 -57 11 -67 13c18 -3 101 5 117 7c16 1 26 0 26 -25c0 -30 -88 -71 -141 -71c-35 0 -43 7 -49 14v0c-2 5 -4 12 -7 19c11 -17 46 -8 44 7c17 -13 54 2 45 20c18 -9 38 10 32 16zM157 293
c0 14 10 26 24 25c14 0 25 -11 25 -25s-11 -24 -25 -24s-24 10 -24 24zM166 305c0 -6 5 -8 15 -8s15 2 15 8s-5 9 -15 9s-15 -3 -15 -9zM267 315c44 0 82 -36 85 -42c-4 2 -21 9 -40 9c-14 0 -9 -9 -12 -11c-4 -2 -27 -14 -43 -20c-9 17 -9 53 10 64zM465 197
c13 -13 18 -61 -27 -64c5 -19 -27 -34 -55 -27c-2 -15 -39 -25 -62 -7c-4 -15 -41 -12 -55 0c7 -12 25 -43 27 -52c2 -12 -2 -27 -13 -28c0 -16 -20 -28 -42 -24c-12 -17 -32 -13 -44 -7c-10 -10 -30 -2 -34 8c-3 6 -12 30 -15 39c-4 -12 -19 -24 -36 -24
c-41 0 -111 90 -109 196c0 30 5 57 16 83c10 23 25 45 43 62c34 33 80 51 125 51c69 0 96 -58 101 -78c7 -2 14 -3 21 -6c19 44 77 74 116 62c-27 -28 -26 -44 -29 -60c-3 -17 -8 -77 -86 -75c-2 3 -5 12 -6 14c-6 -2 -12 -4 -17 -6c-1 -5 -2 -10 -4 -14
c38 -4 160 -20 185 -43zM347 276c-10 10 -41 36 -80 35c-9 -11 -19 -32 -8 -57c5 3 23 13 39 17c-1 2 -1 3 -1 5c-9 -2 -20 -5 -25 -5c-9 0 -13 2 -17 6c6 -2 13 -2 16 -2c14 0 23 9 38 9c11 0 26 -4 38 -8zM364 278c20 26 10 69 35 91c-36 -2 -68 -26 -82 -56
c4 -2 10 -6 15 -9c10 21 27 43 44 49c-15 -13 -28 -34 -38 -53c6 -5 13 -11 19 -16zM315 258c18 1 31 7 38 11c-7 3 -18 5 -27 7c-1 -2 -3 -7 -4 -8c0 0 1 6 1 8c-1 1 -10 2 -14 2c0 -5 4 -15 6 -20zM261 325c-4 15 -28 56 -79 55c-90 0 -164 -76 -164 -176
c0 -95 77 -167 166 -167c36 0 70 27 75 70c-1 2 -3 5 -3 7c15 -16 52 -15 52 0c30 -15 56 -2 50 13c30 -10 52 8 41 23c20 -4 33 2 39 12c-19 5 -132 27 -147 29c21 -1 105 -8 151 -14c-1 5 -5 12 -9 14c-10 6 -106 26 -167 30c-2 -4 -7 -11 -16 -17
c-15 -11 -38 -22 -80 -22c36 9 68 27 84 54c-12 18 -24 57 7 89z" />
    <glyph glyph-name="uniF102" unicode="&#xf102;" 
d="M234 265c0 -21 -17 -35 -48 -35h-23v67c5 1 13 2 26 2c28 0 45 -11 45 -34zM185 198c31 0 56 -12 56 -40c0 -30 -25 -41 -54 -41c-10 0 -18 0 -24 1v80h22zM0 448h512v-512h-512v512zM265 106c14 12 23 28 23 50c0 34 -23 54 -49 61v1c26 10 40 31 40 53
c0 21 -10 36 -25 45c-17 12 -37 16 -70 16c-25 0 -51 -2 -65 -5v-241c11 -1 30 -3 55 -3c45 0 74 8 91 23zM419 223v0v42c-4 1 -7 1 -11 1c-19 0 -39 -13 -48 -38h-2l-1 34h-39c1 -16 2 -33 2 -57v-119h44v91c0 5 1 10 2 14c4 20 19 33 40 33c5 0 9 0 13 -1z" />
    <glyph glyph-name="uniF14C" unicode="&#xf14c;" horiz-adv-x="313" 
d="M3 373l148 53c3 1 5 -1 5 -4v-460c0 -3 -2 -5 -5 -4l-148 55c-2 1 -3 2 -3 4v352c0 2 1 3 3 4zM179 288c0 2 3 4 5 3l128 -73c1 -1 1 -2 1 -3v-186c0 -1 -1 -2 -2 -3l-127 -68c-2 -1 -5 1 -5 3v327z" />
    <glyph glyph-name="uniF131" unicode="&#xf131;" horiz-adv-x="374" 
d="M-8 448zM266 291c0 0 -6 56 -62 58s-85 -42 -85 -105s32 -112 86 -112s61 62 61 62l104 -6s6 -57 -38 -100s-97 -50 -134 -50s-89 0 -139 51s-59 101 -59 150s9 114 69 163c40 33 82 46 123 46c171 0 182 -158 182 -158z" />
    <glyph glyph-name="uniF115" unicode="&#xf115;" horiz-adv-x="496" 
d="M-7 448zM258 294v0c-8 0 -16 0 -24 -1c-86 -7 -154 -48 -150 -91s77 -70 163 -63s153 47 149 90c-3 39 -63 66 -138 65zM236 288c32 -1 64 -4 87 -8c8 -13 12 -28 12 -44c0 -50 -46 -92 -102 -92s-101 42 -101 92c0 9 1 18 4 27c29 12 67 26 100 25zM228 288h6
s46 2 69 -15c0 -1 -1 -3 -1 -4v0c-1 -6 -4 -11 -6 -16h-1c-3 0 -7 -2 -8 -5c0 -2 2 -6 3 -7c0 -1 -2 0 -2 -1v0c-5 -6 -10 -13 -17 -17c-2 13 -14 23 -27 23c-15 0 -27 -12 -27 -27v-1c-9 3 -17 9 -24 16c-1 1 -1 0 -2 1c2 5 6 14 9 19c1 0 2 -1 3 -1c5 0 9 1 9 6v1v0
c0 1 -1 1 -1 2v0c0 1 -1 2 -1 3c9 7 21 12 33 15c-14 -1 -27 -5 -37 -13h-3c-4 0 -8 -2 -9 -5c0 -1 2 -4 2 -5s-2 -1 -2 -2v0c-3 -4 -6 -9 -8 -14c-7 9 -11 21 -13 32c1 -13 5 -25 12 -35c0 -1 -2 -2 -2 -3h1c-1 -2 -2 -3 -2 -5c-1 -7 -1 -17 0 -23h-1v-1c-3 -2 -5 -4 -6 -7
c-1 -6 6 -11 12 -11h1c3 -5 6 -14 10 -19l2 -1v0v-1v0l-6 3v0c-1 0 -1 1 -2 1v0c-24 14 -41 42 -41 72c0 3 0 5 1 8c2 13 10 20 21 26v-1v-2h1c0 1 -1 3 -1 4c18 9 44 10 55 10v0zM246 284h-2c4 0 8 0 14 -1c-4 1 -8 1 -12 1zM304 272c7 -6 12 -14 12 -25c0 -4 0 -9 -1 -14
c-1 -11 -5 -22 -10 -31l-3 3s-3 2 -4 3v0h-1c-1 1 -2 1 -3 2c-6 3 -13 6 -20 7v0h-2c8 5 17 16 22 24l1 -1c4 0 8 3 8 6v0v0l-1 2v0l-1 1v1v0l-1 1s0 1 -1 1c1 4 3 9 4 14v2h1v4v0zM190 232c8 -9 18 -16 29 -19c1 -2 4 -7 5 -9c-1 -1 -3 -2 -4 -3c-1 0 0 -1 -1 -1
c-8 -7 -13 -16 -17 -26c-3 4 -6 9 -8 13v0c0 1 -1 1 -1 2c2 2 4 4 5 7c0 6 -5 10 -10 11c-1 6 0 13 1 20v0v1c0 1 1 2 1 3v1v0zM270 214c12 -1 23 -7 33 -14c0 -1 -1 -1 -1 -2v0c-15 -23 -40 -38 -69 -38c-7 0 -14 1 -21 3l-1 1v0l-2 2l-1 1l-2 2v0l-1 1c4 11 13 25 23 32
c5 -4 11 -6 17 -6c12 0 21 7 25 18zM362 317v0s-1 -3 -4 -7l1 1s-11 -18 -20 -28c7 1 22 13 22 13l-6 -8c2 1 2 2 2 2s-3 -4 -6 -9v0c-1 -2 -2 -5 0 -5c8 -7 39 35 39 35l-3 -6l-1 -1v-2c-3 -6 -12 -20 -24 -35c16 -4 50 40 50 40s-1 -5 -6 -14c-3 -6 -7 -14 -17 -24
c19 6 41 39 41 39s-3 -8 -9 -19v-1h-1c-4 -8 -10 -18 -18 -27c19 7 47 49 47 49s-3 -8 -9 -19v0c-5 -10 -14 -23 -25 -34c27 -3 64 35 64 35s-2 -3 -5 -7l1 1s-11 -22 -28 -35c22 -4 49 28 49 28s-5 -8 -14 -17c7 6 11 11 11 11s-31 -48 -80 -46c-16 1 -65 49 -169 45
c-138 -5 -166 -63 -240 -103c3 3 6 7 9 10c-2 -1 -4 -3 -6 -4c78 78 140 102 196 113c1 0 3 1 4 2v0c2 5 2 9 2 9s-1 -1 0 -4c2 5 3 10 3 10s1 -11 6 -13c2 0 3 1 5 3v0l4 10l-2 -6c3 5 5 11 5 11s-6 -18 0 -19l18 18s-5 -16 -2 -17s19 23 19 23s-9 -16 0 -18s21 11 21 11
s-4 -4 -6 -8c2 1 3 3 3 3s-1 -3 -3 -5c0 -1 0 -3 1 -3c19 -7 35 19 35 19s-3 -6 -7 -13v-1c-1 -3 -3 -5 -5 -9c17 -4 30 18 33 24l-14 -29c8 -4 39 31 39 31v0zM411 230c12 0 27 -13 27 -13s-7 3 -13 5c8 -4 15 -10 15 -10s-15 6 -20 6c8 -6 30 -16 30 -16s-8 3 -16 4
c9 -5 18 -9 18 -9s-25 8 -28 4c8 -10 35 -32 35 -32s-12 9 -24 17c11 -10 26 -22 26 -22s-41 31 -44 27v0c4 -7 16 -16 16 -16s-4 2 -9 5l10 -10s-34 21 -46 15l-1 -1c4 -6 15 -14 24 -20c-5 3 -10 6 -15 8c5 -4 12 -9 17 -13c-9 6 -21 12 -25 9c-1 -1 0 -2 0 -4
c7 -15 31 -45 31 -45s-6 7 -13 14c7 -10 15 -18 15 -18s-45 47 -49 45c-1 0 -1 -1 -1 -2v0c4 -8 11 -18 11 -18l-5 5c3 -5 7 -10 7 -10s-22 24 -28 20c-1 -1 -1 -2 0 -5c7 -19 30 -57 30 -57s-3 5 -8 12c5 -9 9 -17 9 -17s-39 63 -56 54c5 -11 9 -21 11 -28v-2
c10 -31 5 -36 5 -36s0 2 -1 6c0 -1 -1 -1 -1 -1s-1 12 -5 26v1c-5 13 -14 26 -29 25c-7 0 -7 -8 -4 -17v0c4 -11 10 -22 10 -22s-1 3 -4 7c3 -7 6 -12 6 -12s-22 38 -37 39c6 -11 9 -21 12 -29v0c11 -31 5 -44 5 -44s1 4 0 11c0 -5 -2 -7 -2 -7s2 13 -3 29v0
c-4 12 -12 24 -26 34c0 -1 1 0 1 -1c9 -17 -12 -66 -12 -66s2 8 4 19l-5 -15s9 38 4 58c-3 6 -8 9 -17 5c-6 -2 -1 -41 -1 -41s0 5 -2 12c0 -5 1 -8 1 -8s-2 13 -6 25v1c-3 7 -6 13 -10 12c-6 -1 -40 -62 -40 -62s5 12 10 25c-6 -11 -11 -20 -11 -20s18 43 20 58
c-6 -3 -17 -29 -17 -29s1 5 2 12l-4 -8s4 15 3 23l-1 1c-5 2 -36 -28 -36 -28s9 10 15 19c-8 -7 -17 -15 -17 -15s18 20 20 29c-6 7 -12 7 -20 4c-12 -5 -28 -26 -28 -26s7 11 11 20c-7 -7 -13 -16 -13 -16s13 18 14 28c-9 7 -50 -28 -50 -28s12 11 18 20
c-10 -7 -20 -15 -20 -15s19 18 22 27c-8 5 -40 3 -50 3c-31 0 -41 7 -51 15c7 -4 14 -6 21 -7c-11 3 -17 8 -23 12c41 -21 79 3 126 -10c36 -10 80 -23 139 -14s111 35 135 81c2 6 6 8 11 8v0zM411 164c6 -4 11 -8 11 -8s-5 4 -11 8zM413 159c6 -4 11 -8 11 -8s-5 4 -11 8z
" />
    <glyph glyph-name="uniF10A" unicode="&#xf10a;" horiz-adv-x="469" 
d="M235 427c130 0 234 -105 234 -235s-104 -235 -234 -235s-235 105 -235 235s105 235 235 235zM340 139c-10 9 -17 17 -19 18c0 1 7 9 16 19c19 21 27 39 27 61c0 21 -4 33 -19 50c-17 19 -44 26 -72 21c-19 -4 -24 -7 -79 -64c-32 -33 -62 -59 -65 -59c-17 0 -10 13 27 51
l38 39l-21 22c-11 12 -22 21 -23 21c-4 0 -81 -80 -86 -92c-11 -22 -5 -60 13 -80s59 -29 87 -17c6 2 37 31 67 62c54 55 68 65 73 50c2 -7 -2 -13 -50 -63l-27 -28l42 -41l41 -42l24 24c13 13 23 25 23 27s-7 12 -17 21z" />
    <glyph glyph-name="uniF150" unicode="&#xf150;" horiz-adv-x="351" 
d="M234 -31c22 14 40 33 45 60c7 35 -6 63 -29 88c-15 16 -34 29 -52 41c-13 9 -26 17 -37 29c-10 10 -16 21 -14 38c-12 -12 -18 -24 -19 -38c-2 -16 2 -30 12 -43c4 -5 9 -11 12 -16c6 -7 11 -17 11 -27c0 -17 -11 -30 -26 -31c-16 -1 -30 12 -31 28c0 5 1 11 1 18
c-25 -20 -41 -45 -42 -77c-1 -33 16 -55 42 -74c-2 -2 -4 0 -6 0c-75 26 -114 96 -97 175c10 47 35 86 66 121c21 25 46 46 67 69c14 16 26 33 32 53c4 14 3 24 -1 34c2 2 5 1 6 -1c27 -26 42 -56 40 -94c-1 -15 -7 -30 -10 -45c-3 -12 -4 -24 -1 -36s10 -21 22 -24
c18 -5 40 8 36 30c20 -11 36 -23 51 -40c59 -66 50 -157 -19 -212c-17 -13 -35 -24 -55 -31c-1 3 -4 2 -4 5z" />
    <glyph glyph-name="uniF151" unicode="&#xf151;" horiz-adv-x="379" 
d="M247 390h-1h1l-1 1zM118 82v1v-1v-8v-1v1v8zM134 74v0v0zM172 -43c2 -2 2 -6 0 -7s-4 -2 -6 -2s-2 2 -3 4c-1 4 0 8 0 12c0 2 0 5 -1 7c-2 -3 -5 -6 -7 -9s-5 -6 -7 -8c-1 -1 -2 -2 -4 -3c-3 -1 -6 0 -7 3s1 6 1 9v2c-1 0 -1 -1 -1 -1c-4 -6 -9 -11 -13 -17
c-1 -1 -2 -3 -4 -3s-3 1 -4 2c-1 2 0 4 1 5l3 3c6 7 9 15 14 22c2 3 5 5 7 8l2 2c3 2 5 2 6 -2c1 -3 0 -6 0 -9c0 -2 -1 -5 -1 -7c0 -1 -1 -2 0 -2s2 0 2 1c2 3 6 7 8 10s5 6 8 9c2 1 3 2 5 1s3 -3 3 -5c0 -5 -1 -10 -2 -15c-1 -3 -2 -5 -1 -8c0 -1 0 -1 1 -2zM356 -47
c1 -2 0 -3 -1 -4c-2 -2 -5 -3 -8 -2c-4 2 -8 5 -11 9s-6 7 -9 11c-1 -4 -1 -9 -2 -13s-3 -5 -6 -6c-4 -1 -5 1 -4 5c2 10 5 21 8 31c0 1 1 3 2 4c2 2 4 2 6 1c1 -1 1 -1 2 0c3 2 5 4 9 3s7 -3 7 -8c0 -6 -2 -10 -7 -14c-2 -2 -2 -3 0 -5c2 -3 4 -6 7 -8c1 -1 3 -1 4 -1
c2 0 2 -1 3 -3zM340 -20c1 2 -1 4 -3 4c-3 0 -5 -2 -6 -5l-3 -9c4 2 8 4 11 7c1 1 1 2 1 3zM119 -9c4 -1 7 -7 7 -11c-1 -15 -12 -30 -26 -33c-7 -2 -12 2 -12 9c0 11 4 21 12 29c4 4 8 5 13 4c1 0 2 0 2 1c1 2 3 2 4 1zM108 -42c6 5 8 11 9 17c0 3 -1 5 -3 6
c-4 2 -8 0 -11 -3c-4 -5 -6 -11 -7 -18c0 -3 2 -5 5 -5c2 0 5 1 7 3zM296 -21c-2 -1 0 -3 -1 -4s-1 -2 -2 -3c3 0 7 1 10 1h4c2 0 2 -1 2 -3s-2 -3 -4 -4c-3 -1 -7 -2 -10 -2c-4 0 -4 0 -5 -5c4 1 9 1 13 1h4c2 0 3 -1 3 -3s-1 -4 -3 -5h-2c-7 0 -14 -1 -21 -3
c-1 0 -2 -1 -3 0s-3 2 -2 4l6 21c1 3 2 7 6 8h1c1 4 5 6 8 6c6 1 11 0 17 0c3 0 3 -2 2 -4c-1 -1 -2 -2 -4 -3c-4 -1 -9 -2 -13 -2c-2 0 -4 1 -6 0zM84 -12c1 -1 1 -1 1 -2c-1 -2 -1 -3 -3 -4c-1 -1 -2 -2 -3 -1c-3 2 -6 1 -9 -1c-2 -1 -4 -3 -5 -5c-2 -3 -3 -7 -4 -11v-2
c0 -2 1 -3 3 -2c4 1 9 2 13 4c1 0 3 1 4 1s2 0 2 -2s-1 -3 -2 -4s-2 -3 -4 -4c-6 -3 -12 -5 -18 -6c-3 -1 -6 1 -7 3c-2 3 -2 6 -1 10c2 9 6 18 13 24c3 3 7 5 13 5c2 0 5 -2 7 -3zM277 -14c1 -1 3 -3 2 -4c-1 -3 -3 -4 -6 -2c-2 2 -4 3 -7 2s-4 -3 -2 -6s5 -7 7 -10
c1 -2 3 -5 4 -7c2 -5 -2 -10 -8 -10c-7 1 -13 2 -19 7c-3 3 -4 6 -2 9c1 2 2 1 4 1s3 0 3 -2c0 -1 1 -2 2 -3c2 -2 4 -4 7 -5h3c2 1 3 2 2 3c-1 2 -4 4 -5 6l-6 9c-2 4 -1 8 2 11c5 5 13 6 19 1zM246 391v0h-1s1 -1 1 0zM246 390h1l-1 1v0c0 -1 -1 0 -1 0l1 -1v0zM138 80
l1 -1c2 -1 3 -2 5 -3c-2 1 -3 2 -5 3zM266 136c-3 1 -7 3 -10 5c-2 2 -5 3 -7 5c2 -2 5 -3 7 -5c3 -2 7 -3 10 -5zM106 134c-1 -1 -2 -1 -3 -2c-1 0 0 -1 -1 -1c0 0 0 1 1 1c1 1 2 1 3 2zM169 49l-1 1zM129 144h3h-3zM106 134c2 1 3 2 5 3c-2 -1 -4 -2 -5 -3zM132 144h2h-2z
M279 394v-1v1zM270 397l-1 1c-6 4 -11 9 -17 13c6 -4 11 -9 17 -13zM273 363v0v0zM260 351l13 9c-5 -3 -9 -6 -13 -9zM274 363h1h-1zM263 373h1h-1zM267 420c5 -3 9 -6 14 -10c-5 4 -9 7 -14 10zM275 400c1 -1 2 -3 3 -4c0 0 1 -1 1 -2c0 1 -1 2 -1 2c-1 1 -2 3 -3 4z
M185 -3v0v0zM185 -3v0v0zM185 -3l-1 1v-1c-6 1 -12 3 -18 5c2 2 4 2 6 1c4 -2 8 -3 12 -5zM185 -3v0v0zM185 -3v0v0zM263 47v0v0v0zM184 -2h1v-1v0v0v0v0h-1c-6 1 -12 3 -18 5c2 2 4 2 6 1c4 -2 8 -3 12 -5zM365 258c-1 -1 -1 -1 0 -2l5 -5s3 -5 5 -7s2 -3 0 -5
c-1 -1 -2 -2 -1 -3c3 -5 2 -9 1 -14c0 -1 -1 -4 0 -5c1 -2 1 -3 2 -5c1 -3 1 -7 0 -10c-2 -9 -6 -18 -10 -27c-3 -7 -5 -13 -8 -20s-5 -15 -6 -23l-3 -18c-1 -4 -1 -8 -2 -12c-1 -2 -1 -5 -2 -7c-2 -5 -4 -9 -6 -14c-1 -2 -2 -3 -2 -5v-13c0 -1 -1 -1 1 -1c5 1 11 2 16 3
c1 0 1 1 1 0s-1 -1 -1 -1c-6 -4 -10 -9 -14 -14l-7 -7h-2c2 5 5 9 8 13v0v1h1h-1v0v0c-11 -5 -23 -10 -34 -15c-14 -6 -27 -12 -40 -19c-1 0 -1 0 -1 -1c0 -3 1 -7 1 -11c1 0 1 1 2 1c15 8 31 14 46 21c10 4 21 8 31 12c5 2 9 2 14 3h1c-4 -1 -7 -6 -10 -6v0
c-1 -1 -3 -1 -4 -2c-2 -1 -3 -2 -4 -4c-1 0 -2 0 -2 -1v0v0v0v0v0c-1 0 -1 0 -1 -1h-2v0v-1l-3 -3h1h2v0c6 2 12 2 18 3h4h2c-22 -6 -44 -12 -66 -19c-18 -6 -35 -12 -51 -22l-1 -1c1 -1 2 -3 3 -4c3 -3 3 -6 2 -10c-2 -13 -13 -26 -26 -29c-7 -2 -11 2 -11 9
c0 11 3 20 11 28c2 2 4 4 7 5h1c7 4 15 9 23 14c-4 2 -8 3 -12 4h-2c-4 -3 -8 -7 -12 -11s-8 -8 -13 -12c-1 -1 -1 -2 -1 -3c0 -4 -2 -7 -5 -10s-7 -4 -11 -6c-3 -1 -6 -3 -9 -4c-1 0 -1 0 -1 -1c0 -2 -1 -5 -1 -7c-1 -4 -4 -6 -7 -5c-2 1 -3 3 -2 5c4 11 6 22 11 32l3 3
c-2 1 -6 1 -8 2c-21 5 -42 9 -64 13c-4 1 -9 1 -14 1c-13 1 -25 1 -38 1h-16h-2s-1 1 -1 2s0 1 1 1c10 1 21 2 31 3c7 1 15 0 22 0c10 0 19 -1 29 -2c3 0 7 -1 10 -1h1v1c0 1 -1 1 -2 2c-4 3 -9 4 -14 5c-15 4 -29 8 -44 12c-7 2 -14 2 -21 3c-1 0 -1 1 -2 0
c6 -5 11 -9 17 -14c-1 -1 -1 0 -2 0c-4 1 -7 3 -11 5c-6 3 -11 7 -17 9h-1c-1 1 -1 2 -1 3s1 0 2 0c10 0 21 0 31 -1c7 -1 13 -2 19 -3c1 0 1 -1 2 -1s3 -1 3 0s0 4 -1 5c-2 1 -3 3 -5 4c-1 1 -2 1 -1 2s1 4 2 5s0 2 -1 3c-14 10 -27 20 -41 30c-5 4 -10 7 -15 11
c-1 1 -2 2 -2 3c0 2 0 4 -1 5c-1 2 -2 2 -4 3l-9 3c-1 0 -2 2 -2 3v16c0 11 -1 23 -1 34v12c0 9 -1 17 -1 26c0 1 0 2 1 3s0 3 -1 4c-1 2 -3 3 -4 5c-1 1 -1 3 -1 4c1 5 2 9 3 14c0 1 0 1 -1 1c-4 1 -8 1 -12 2c-1 0 -2 1 -2 2c1 14 3 27 4 41v1c0 3 1 3 3 2
c6 -1 11 -4 17 -5c1 0 2 0 2 1c1 5 2 10 4 15v3c-2 6 -5 12 -8 18c0 1 -1 2 -2 1s-2 -3 -3 -2c-1 0 -1 2 -2 3v1c-1 1 -1 3 -1 4s3 2 4 3s0 1 0 2c-3 9 -6 19 -9 28s-6 18 -8 28c-1 6 -2 11 -3 17c0 2 0 5 1 7c0 1 1 1 2 1c3 0 5 -2 7 -4s4 -5 5 -7c4 -8 9 -15 13 -23
c1 -1 1 -1 2 0c4 6 7 11 11 17c3 5 7 9 10 14c1 2 4 2 6 3h1c2 -1 4 -2 6 -4c1 -1 2 -1 3 -1c15 4 30 10 44 18c1 1 3 1 5 2c3 1 6 0 5 -4c0 -3 -2 -6 -4 -8c-6 -5 -11 -10 -17 -15c-1 -1 -1 -2 -1 -3c2 -6 4 -11 6 -17c1 -2 1 -2 3 -1l72 45c2 2 2 1 4 -1v-1
c1 -1 1 -1 0 -2c-9 -6 -17 -10 -26 -16c-7 -5 -14 -9 -21 -14c-1 0 -1 -1 -1 -2h1c3 0 4 -1 6 -3s4 -3 4 -6c0 -2 -1 -4 -3 -6c-6 -5 -11 -10 -16 -16c-1 -1 -1 -2 -2 -3c-8 -12 -13 -25 -20 -38c-2 -3 -4 -5 -7 -7c-4 -2 -7 -4 -11 -6c-2 -1 -3 -2 -3 -4c0 -3 -1 -5 -3 -7
c-1 -1 -1 0 -1 -1c-2 -6 -3 -13 -5 -19c0 -2 0 -3 1 -3l24 -6c2 0 2 0 2 -2c-2 -8 -5 -16 -7 -24c-1 -2 0 -5 -1 -7c0 -1 -2 -2 -3 -2c-2 0 -3 1 -5 1c-1 0 -1 0 -1 -1c1 -5 1 -10 2 -15c1 1 2 1 2 2c5 9 9 18 16 26c6 7 13 14 19 20s14 10 21 14c2 1 4 1 5 2c7 4 15 5 23 6
c3 0 7 1 10 1c6 0 12 -2 18 -4c8 -2 15 -7 21 -12c3 -2 4 -5 6 -8c1 -1 1 -2 3 -1c8 2 15 2 23 0c2 -1 5 -2 7 -3c5 -3 11 -6 15 -10l2 -2c4 -6 9 -11 13 -17c3 -5 6 -9 7 -15c1 2 1 6 2 8v1c-2 4 -4 8 -6 11c-1 1 -1 1 0 2l6 9c1 1 0 2 -1 3c0 1 0 -1 -1 -1
c-5 -2 -5 -3 -8 2c-6 11 -13 24 -19 35c-1 2 -2 2 1 3c8 2 16 5 24 7c1 0 2 0 1 2c-2 5 -3 10 -4 15c0 1 -1 3 -2 3h-2c-4 1 -5 3 -6 7c0 1 -1 2 -2 2s-2 1 -3 1c-9 2 -18 7 -26 12c-3 2 -5 4 -7 6c-1 1 -2 2 -3 2c-10 4 -20 8 -31 11c-5 1 -4 4 -3 8s4 5 8 6c9 2 17 4 26 4
c1 0 2 1 1 2c-2 3 -3 5 -5 7c-1 1 -2 1 -3 2c-9 9 -18 18 -28 25c-2 2 -5 4 -5 7c0 2 0 3 2 5s5 3 8 3c4 0 7 -2 10 -4l18 -12c1 -1 3 -1 4 -2l1 -1v0h1l-1 1v0c-9 9 -18 17 -27 26c-4 4 -6 8 -5 13c0 1 2 4 4 4s3 1 3 3c0 4 3 7 7 6c3 0 5 -1 8 -1c2 0 4 0 5 -1
c11 -6 21 -11 31 -18c7 -5 15 -11 21 -17c0 0 0 -1 1 -1c0 1 -1 2 -1 2c-4 9 -7 17 -11 26c-1 3 -1 7 1 9c1 1 2 2 4 2s4 -1 5 -2c4 -2 7 -4 9 -8c6 -9 10 -18 15 -27c4 -8 9 -17 11 -26c3 -10 4 -22 5 -33v0c0 -4 1 -8 0 -12c-1 -2 -1 -4 0 -6c4 -11 7 -22 12 -33
c1 -3 1 -3 4 -2c10 3 20 5 29 8c2 1 2 1 2 -1c-1 -13 -2 -25 -3 -38c0 -2 0 -2 -2 -3zM231 -42c6 5 7 11 8 17c0 3 -1 5 -3 6c-4 1 -7 0 -10 -3c-4 -5 -6 -11 -7 -18c0 -3 2 -5 5 -5c2 0 5 1 7 3zM298 304c2 -7 4 -13 7 -20c0 -1 2 -3 3 -2l30 9c2 0 2 2 1 3
c-4 12 -9 23 -14 34c-1 1 -1 3 0 4c2 5 4 11 3 17c0 3 -1 6 -1 9c-1 8 -3 15 -5 23c-2 9 -6 16 -10 24c-2 6 -6 11 -9 16l-6 9s-3 6 -6 7c-1 1 -2 2 -3 1s-2 -3 -1 -4c1 -3 3 -5 4 -8c3 -7 6 -15 8 -23c1 -3 2 -6 2 -9c0 -1 0 -2 -1 -3c-1 0 -1 1 -2 2c-2 2 -5 4 -9 3
c-1 -1 -2 0 -3 0s-2 0 -2 1s0 1 1 2c1 0 1 0 2 1s1 2 0 3c-2 2 -3 5 -5 7c-5 4 -10 7 -15 10c-1 1 -2 1 -3 2c-9 6 -18 10 -28 15c-1 1 -3 1 -4 1s-1 0 -2 -1c0 -1 -1 -2 0 -3s3 -2 4 -3c4 -2 8 -5 12 -8c7 -6 15 -11 22 -17l7 -7c1 -1 3 -2 4 -3v-2v0v-1v-1
c-1 -1 -3 0 -4 1c-1 0 -1 1 -1 1h-1l-3 3c0 0 0 1 -1 1c-6 4 -11 9 -17 13s-10 9 -16 13c-3 2 -6 4 -10 6c-1 1 -2 0 -3 -1s-2 -3 -1 -4c1 -2 3 -4 5 -6s5 -4 7 -6c10 -12 21 -23 31 -35c1 -1 2 -2 2 -3c0 -2 -1 -3 -3 -2h-1c-13 7 -25 15 -37 23c-4 2 -7 4 -11 6
c-1 1 -3 1 -4 0s0 -3 1 -4c5 -4 9 -8 13 -12c10 -8 20 -15 27 -26c1 -1 4 -2 6 -1c4 3 9 4 14 4v0h1l1 -1h1c1 -1 -1 -1 -2 -2c-4 -3 -9 -6 -13 -9c-1 -1 -3 0 -4 0c-2 1 -4 1 -6 1c-9 0 -19 -2 -28 -3c-2 0 -4 0 -6 -1c-1 -1 -2 -2 -2 -3s1 -3 2 -3c6 -1 11 -2 17 -3
c2 -1 5 -1 7 -1c7 -4 13 -8 19 -13c4 -3 8 -5 13 -6c2 0 4 -1 6 -2c3 -1 7 0 9 -2s3 -5 4 -8c1 -2 2 -3 4 -2c2 0 2 0 3 -1zM292 193c-2 2 -3 4 -5 6l-2 2c-5 3 -9 6 -14 9l-6 3c-3 2 -6 3 -11 3c-3 0 -5 1 -8 1h-3h-6c-5 1 -4 -2 -4 -7s-1 -8 1 -13c4 -9 14 -16 22 -22
s16 -8 25 -12c1 0 4 -1 8 -2s8 -2 12 -2c1 0 2 -1 2 0v1v2h-1v1c-2 10 -8 19 -16 25l-5 4l-9 6c0 0 -1 1 -2 1l-2 2c-1 1 25 -11 24 -10v0v1v1zM232 239c-1 -1 1 -6 1 -8v-8c0 -3 23 -1 26 -2c7 -1 14 -7 21 -11c1 0 8 -3 7 -2s-1 0 -2 1h1c-4 6 -7 11 -11 16
c-2 3 -6 7 -9 9c-1 1 -2 1 -3 1c-5 2 -11 4 -16 6c-6 2 -7 1 -9 1c-3 0 -5 -1 -6 -3zM229 195c0 -1 -1 -3 -1 -5c-2 -8 -1 -15 5 -21l1 -1c5 -5 11 -9 18 -12c6 -2 13 -6 19 -7c2 -1 5 -1 7 -1c7 1 13 2 20 2c6 0 12 0 18 -1v0v0c-2 2 -5 4 -8 4c-11 2 -22 2 -33 5
c-5 1 -9 3 -13 6c-6 5 -11 10 -17 15c-3 2 -5 5 -8 7c-2 2 -4 5 -6 8l-1 1c0 1 -1 1 -1 0zM284 107c4 0 7 3 9 6c2 2 3 5 4 8l1 1c1 2 1 3 1 5v0c0 1 1 2 0 2h-3h-1h-1v0v0v-2v-2s-1 -1 -1 -2s0 -1 -1 -2c-1 -3 -4 -6 -6 -8c-1 2 -1 4 0 6v0c1 1 1 2 2 3l1 1v1v0
c0 1 -1 4 -3 5c-1 0 -1 1 -2 1h-1h-2c-2 0 -3 0 -5 1v1c-3 1 -5 1 -8 2c-1 0 -2 1 -3 1c-3 2 -7 4 -10 6c-2 2 -4 3 -6 5c-2 1 -4 2 -5 3c-2 2 -5 3 -7 5v0l-1 1l-1 1c-1 0 -1 0 -1 1l-1 1v1c-3 4 -7 6 -8 11c-2 -4 -4 -7 -6 -10l-3 -3c-4 -4 -9 -7 -15 -9
c-4 -1 -9 -2 -13 -2c1 1 3 2 4 3l1 1c3 3 7 5 10 9l1 1v1v0v0l-1 -1c-3 -2 -6 -3 -9 -5c0 0 0 -1 -1 -1s-2 -1 -3 -1c-1 -1 -2 0 -3 -1c-6 -3 -13 -4 -20 -5c-4 0 -7 -1 -11 -1s-7 -1 -11 -1c-2 0 -6 -1 -8 -1h-1h-2h-2h-2h-1c-6 -2 -12 -4 -18 -7c-2 -1 -4 -1 -5 -2
s-2 -1 -3 -2c-1 0 0 -1 -1 -1l-3 -3v-1v0v-1v-1c0 -1 0 -2 1 -4c2 -6 4 -12 8 -18l3 -2c1 -1 2 -2 3 -2l3 -2c2 0 6 0 7 -2c3 -7 7 -11 13 -15l1 -1s0 -1 1 -1c2 -1 3 -2 5 -3c1 0 1 -1 2 -1c2 -2 4 -3 6 -5c1 -1 0 -1 1 -2c2 -2 4 -3 6 -5c0 0 0 -1 1 -2l3 -3
c2 -2 3 -5 5 -8l1 -1c1 -1 1 -3 2 -4c1 -3 3 -5 5 -6c1 -1 2 -1 3 -2s2 0 3 -1s2 -1 3 -2s2 -1 3 -1l1 -1h1c4 -1 8 -1 12 0h3s3 1 4 1v0c1 0 2 1 3 1c3 1 6 1 9 2c1 0 2 1 3 1h1c1 0 1 1 2 1h1l1 1h1c1 1 3 1 4 2s3 1 4 2c1 0 1 1 2 2c2 1 4 2 6 4c1 1 1 2 2 3
c3 4 6 9 8 14c0 1 2 1 2 2c1 1 0 3 1 4l1 1c1 2 1 5 2 7c-1 0 -1 -1 -2 -1s-2 -1 -3 -1h-3h-1c-1 0 -3 0 -3 1c-1 1 0 2 1 2h1v0l1 1h1c3 1 6 3 9 5c2 1 3 3 5 4l2 2c3 3 5 6 7 10v0c0 1 1 1 1 2s1 2 2 2h3v0h1zM289 98c-1 -4 -1 -7 -2 -11c0 -1 0 -2 -1 -3v1v-1
c-1 5 -2 10 -2 15c0 1 1 1 2 1s2 3 3 2v-1h1c1 -1 -1 -2 -1 -3zM215 23h-5s-4 -1 -6 0c-1 0 -2 1 -2 2s1 1 1 1h1h2h2h2h5h1c1 0 1 0 1 -1s-1 -2 -2 -2zM122 68c1 4 0 9 1 13c0 1 0 0 1 0c1 -1 2 -1 3 -2v0v-1v-1c-2 -3 -2 -6 -4 -9h-1v0v0zM283 137c-2 0 -3 1 -5 1
c-4 0 -7 1 -10 3h1l-1 1h2s0 -1 1 -1c5 -1 10 0 15 1s10 -2 14 -4h-1h1c-6 -1 -11 -2 -17 -1zM96 201c-2 -3 -2 -6 -3 -9l6 6c3 3 6 5 9 8l2 2c3 3 6 6 10 8c5 3 10 6 16 8c1 1 3 1 4 2s4 1 5 2c4 1 9 1 14 2s9 3 14 3c9 1 19 -2 28 -5c8 -3 15 -7 21 -14c1 -1 2 -4 3 -4h1
v1c1 4 2 8 2 12s-1 9 -2 13c-2 6 -5 11 -10 15c-1 1 -3 2 -4 3s-2 0 -3 1l-2 2s-2 1 -3 2h-2c-2 1 -3 2 -5 3c-4 2 -8 3 -12 3h-2c-6 0 -11 0 -16 -2l-9 -3c-1 0 -1 -1 -2 -1c-1 -1 -3 0 -4 -1h-1c-8 -3 -16 -9 -22 -15v0l-5 -6c-1 -1 -2 -1 -3 -2c-2 -2 -3 -4 -5 -6
s-3 -4 -5 -6s-3 -4 -5 -6l-2 -2s-2 -4 -3 -5c-2 -3 -3 -6 -5 -9zM94 182c-4 -7 -9 -14 -13 -21c-1 -1 -2 -3 -2 -5v0v-1c1 1 2 1 3 2c6 5 13 8 20 10c8 3 17 4 26 5c12 1 24 4 36 7c8 2 15 4 22 8c4 3 8 7 12 10h1v0c1 -4 0 -8 -2 -12c-4 -5 -9 -7 -14 -10
c-9 -5 -20 -8 -30 -11c-7 -2 -15 -3 -22 -5c-9 -2 -19 -3 -28 -8c-5 -2 -9 -6 -11 -11c-1 -2 -1 -6 0 -9v1v-1l3 6c4 5 9 8 15 9c5 1 9 1 14 2c13 2 27 1 40 3c10 2 21 4 30 10c6 4 12 8 18 14s12 12 13 21c1 3 1 5 -1 8s-5 7 -7 9s-5 4 -8 6c-7 5 -15 7 -24 7h-14
c-4 0 -8 -1 -12 -2c-16 -4 -30 -11 -43 -21c-8 -6 -14 -13 -21 -20zM157 170h-2s1 1 2 1l-13 -2c-8 -1 -17 -2 -25 -3c-5 -1 -10 -2 -15 -4c-4 -2 -8 -3 -12 -5c-3 -1 -3 -3 -3 -6c0 -1 1 -1 1 -1h1l1 1c7 5 14 8 23 10c12 2 23 4 35 7c2 1 5 1 7 2zM101 364c0 -1 1 -2 0 -2
l-6 -3c0 0 1 0 0 0l-1 1c-4 4 -7 9 -11 13c-1 1 -1 0 0 1c4 2 6 6 10 8c1 1 2 0 2 -1c2 -6 4 -11 6 -17zM71 390c-1 0 -2 0 -1 -1c2 -3 5 -7 7 -10c0 -1 1 -1 2 -1c3 2 7 4 10 6c8 6 15 12 22 19c1 1 2 2 2 3s1 2 0 3s-2 0 -3 0s-1 -2 -2 -2c-7 -4 -13 -8 -21 -11
c-5 -2 -11 -4 -16 -6zM25 322c1 -2 1 -2 2 -1c15 8 30 17 45 25c2 1 4 3 6 4c-6 4 -12 7 -18 12c0 -2 -1 -4 -1 -6c0 -1 0 -1 -1 -1s-2 1 -3 2s-2 2 -1 3c1 3 2 5 3 8s2 3 4 1h1c5 -6 10 -11 17 -14c4 -2 7 -2 10 0l1 1v1c-1 1 -1 3 -2 4c-4 3 -8 7 -11 10c-5 5 -9 9 -13 15
c-1 2 -3 4 -4 5c-2 2 -6 2 -7 -1l-9 -15c-3 -6 -7 -11 -10 -17c-1 -1 -1 -2 0 -3c1 -3 3 -6 4 -10c0 -1 0 -2 -1 -2s-2 0 -2 1c-2 3 -4 6 -6 10c-6 12 -11 24 -19 35c-1 1 -1 2 -2 1c-1 0 -1 -1 -1 -2c1 -4 1 -9 2 -13c5 -18 10 -35 16 -53zM31 310c3 -7 6 -14 10 -21
c1 -1 1 -2 0 -3c-4 -5 -5 -11 -6 -17c-1 -1 -1 -2 1 -2c1 0 2 -1 3 -1c9 -2 19 -5 28 -7c1 -1 1 0 2 0l1 1v0c2 6 3 13 5 19c0 1 1 2 2 3c3 2 4 5 4 8v3c0 2 1 3 2 4c7 3 13 7 18 13c1 1 2 2 3 4c4 8 8 16 13 23c5 8 11 16 18 23c2 2 3 4 4 6s-1 4 -2 5s-3 1 -5 0
c-7 -6 -15 -9 -24 -13c-4 -2 -9 -4 -11 -8v0c-3 -2 -6 -3 -9 -4c-1 0 -2 1 -3 0c-18 -11 -36 -23 -54 -34c-1 -1 -1 -1 0 -2zM11 234c14 -2 29 -4 43 -6c5 -1 9 -1 14 -2l21 -3v0c1 0 2 1 2 2l6 19c1 1 -1 2 -2 2c-14 4 -26 6 -40 10s-26 7 -40 11h-1h-1v-1v0
c-1 -10 -3 -20 -4 -30c0 -1 1 -2 2 -2v0zM22 215v1l1 1v0c0 -1 -1 -1 -1 -2zM146 28c2 1 4 2 4 6c0 1 -1 3 -1 4c0 2 0 4 -1 6v4s1 3 2 4v0v1s1 0 1 1v0c3 4 3 7 -1 10v0l-1 1c-1 1 -2 1 -3 2l-1 1c-2 3 -5 4 -8 6c-1 0 -1 1 -2 1h-1v0v0h-1v-1v0l-4 -4s-2 -4 -3 -5
s-1 -1 -1 -2v1v0v0c-2 -3 -5 -6 -8 -9v0c-1 0 -1 0 -1 1v0c0 3 2 6 2 9c1 3 1 6 1 9v0v0v1v8v1l-1 1c0 3 -1 6 -2 9c-1 0 0 1 -1 1c-3 1 -5 3 -8 4v0l-1 1c-1 0 -2 0 -3 1l-2 2l-1 2h-1c-1 1 -1 2 -2 3v0h-1c1 -4 0 -8 4 -11c0 0 1 0 1 -1h-1v0h-3v0v0l-1 1c-3 2 -6 4 -8 6
v0v0c-1 1 -1 3 -2 4l-3 6v1v0c0 3 -1 6 -2 9v1v0c0 3 -1 6 -1 9h-1l1 1c0 3 -1 6 0 9v0v0v1v0v1v0h1v0v1c-1 -1 -1 0 -2 -1s-2 -1 -2 -2v0c-1 -1 0 -1 -1 -2c-1 -2 -4 -5 -5 -7v-1c-2 -2 -3 -5 -4 -7c0 -1 -2 -2 -2 -3c-1 -1 0 -3 -1 -4s-1 -3 -2 -4l-1 1c0 5 1 10 1 15v0v1
v0v1l1 1c1 3 1 5 2 8c1 1 2 2 2 4c1 2 1 4 2 6l1 1c0 1 1 1 1 2c1 2 1 5 2 7v0h1v1c1 1 1 2 2 4v0c1 1 1 3 2 5s3 4 4 6c1 1 1 3 2 4v0c-1 3 0 6 -1 9v0v1c0 2 0 5 -1 7c0 1 -1 1 -1 2v1c-1 5 -1 9 -2 14c0 1 -1 2 -2 2h-1v0v0h-5c-1 0 -2 1 -4 1v0v0c-3 0 -5 1 -9 1h-1
c-1 0 -1 1 -2 1c-3 1 -6 1 -9 1v0c-2 1 -6 1 -8 1h-1c-3 1 -5 1 -8 2h-2c-2 1 -2 -1 -2 -2c-1 -3 -1 -6 -2 -9c0 -2 0 -3 1 -5l3 -3v-1c1 -2 1 -4 1 -6c0 -12 0 -25 1 -37c0 -6 1 -12 1 -18v-1c0 -3 0 -7 1 -10v0v-1c-1 -3 -1 -6 -2 -9v-1c-1 -3 -2 -5 -1 -9v0v0v-1
c0 -1 0 -1 1 -1c2 -1 5 -2 7 -3c1 0 1 -1 1 0v0v0v0l1 1c1 1 3 2 4 3v0v0v0v1v0h1l1 1c1 0 1 1 1 1v0v-1h1v0v-1v0v0c-1 -3 -3 -7 -4 -10v0v-1v0v-1v0c1 -2 2 -4 4 -6v0l1 -1v-1h1v0c2 -2 5 -4 8 -6c1 0 1 -1 1 -1l3 -3c0 0 2 1 2 0c1 -1 3 -2 4 -3c1 0 1 -1 1 -1v0
c2 -2 5 -3 8 -5v-1c1 -1 1 -1 2 -1c3 -2 7 -5 9 -7c1 0 1 -1 1 -1s1 1 1 0h-1c1 0 1 -1 2 -1c2 -2 4 -4 6 -5c1 0 1 0 1 -1c1 -1 4 -2 5 -3v0l1 -1c3 -2 3 -5 2 -8v0v-1v-1c0 -2 -1 -4 1 -5c0 0 -1 -1 0 -1h1l1 -1c0 -1 1 -1 1 -2v-1v-2c0 -2 0 -3 2 -3s3 -1 5 -1v0h1l9 -3
h3s2 -1 3 -1c1 -1 3 -1 4 -2v0v0v0v0h1v0v0c1 -1 2 -1 3 -1s1 -1 1 -1v0l1 1v0v0v1c0 1 0 2 1 3v0v0v1v0c0 1 1 0 2 1l1 1v0s0 1 1 1v0zM159 4c0 0 0 1 1 1c4 2 8 5 12 7c8 3 15 9 24 10h-8s-5 1 -8 0c-2 0 -5 -1 -7 -1s-4 1 -6 1c-1 0 -1 0 -1 1s0 1 1 1c7 1 13 4 20 4v0h1
v0v1c-3 0 -6 3 -9 4l-14 13c-1 2 -4 5 -6 8v-1v1l-3 -9c-1 -4 -2 -7 0 -10c1 -2 0 -4 -1 -5l-6 -6c-1 -1 -1 -1 -1 -2c1 -2 0 -5 2 -6c1 0 1 -1 1 -2v-9c0 -1 -1 -2 0 -2c2 -1 4 -2 6 -2v0v0c1 0 1 2 2 3zM185 -3v0v0h-1l-12 6c-2 1 -4 0 -6 -2c6 -2 12 -3 18 -4h1v0v0v0z
M203 -22c1 2 1 4 -1 5s-6 0 -8 -2c-2 -4 -4 -8 -5 -12c4 1 7 3 10 5c1 1 3 2 4 4zM226 4c2 2 5 4 8 6c-6 2 -12 6 -18 8h-1c-2 -1 -6 -1 -9 -1c-2 0 -3 1 -5 0c-7 -3 -15 -6 -23 -9c-1 0 -2 0 -2 -1c4 -1 8 -2 11 -3c8 -3 15 -7 22 -11c1 -1 2 -1 3 0c4 4 9 7 14 11zM262 30
c1 1 0 1 0 3c-2 5 -4 11 -6 16c0 1 0 0 -1 1v0h-1c0 -1 -1 0 -1 -1l-8 -10l-2 -2c-5 -4 -10 -5 -15 -8c1 0 2 -1 3 -1c7 -1 15 -1 21 -4c3 -1 3 -4 3 -6c0 -1 0 -2 -1 -2h-1c-10 4 -20 7 -30 9h-1s-1 0 -1 -1s1 -2 2 -2s2 -1 3 -2c9 -3 18 -5 26 -10h2s1 -1 2 0
c4 2 5 6 4 10s0 7 2 10zM369 242c-2 2 -5 4 -6 7c-1 1 0 2 -1 2l-1 1c-2 3 -5 3 -8 1c-2 -1 -4 -1 -6 -2c-1 0 -2 -1 -3 -1s-1 -1 -1 -1l-9 -3h-1c-3 -1 -6 -3 -9 -4h-1l-1 -1v0h-1c-2 -1 -5 -2 -7 -3h-1h-1c-3 -1 -3 -1 -2 -4c1 -2 0 -4 -1 -6s-3 -3 -4 -5v-1h-1v-1v-1v0v0
v0v0v-1v-1c1 -3 3 -5 5 -7v0v0c1 -1 1 -2 1 -3s1 -1 1 -2s0 -3 -1 -4v0v0l-1 -1c-1 -3 -2 -5 -3 -9v0v-1v-2s-1 -1 -1 -2v0v-1c0 -1 1 -3 2 -4v-1l3 -9v0v-2l1 -1v-2v-1v-5v-1h1v-1h2v0v0c3 -1 6 -3 9 -4h1c1 0 1 0 2 -1c1 0 1 -1 2 -1l1 -1l4 -4c0 -1 1 -1 1 -1
c1 -2 3 -4 4 -5h1c1 -1 1 -3 2 -4v-1c-1 -1 -1 0 -1 0l-6 3v0v0c-3 1 -6 1 -9 2v0v0c-7 0 -14 1 -20 1c0 -1 2 0 2 -1l6 -6h1v0c1 -1 3 -2 4 -3v-1v0c2 -2 4 -4 5 -6v0v0v0l1 -1c0 -1 0 -1 1 -2l1 -1c2 -3 2 -6 3 -9v-1l3 -9v-1v0c-1 -2 1 -3 0 -5h-1v1l-1 1c0 1 -1 0 -1 1
v2l-1 1v0c-1 2 -1 5 -3 7c0 1 -1 1 -2 2c0 1 0 1 -1 1c-2 3 -3 6 -7 8v0h-1v0v0s-1 1 -2 1s0 1 -1 1l-1 1h-1s-1 0 -1 -1c0 -2 -1 -3 -1 -5v-5v0c-1 -3 -1 -7 -1 -10v0c0 -1 -1 -1 -1 -2v-7v-1v0c0 -3 1 -6 1 -9v0v-1c0 -2 1 -5 1 -7v-2v0v-3s1 -2 1 -3c-1 1 -3 2 -4 3l-1 1
s0 1 -1 1v1l-1 1v1s-1 0 -1 1c-1 2 -1 5 -2 7v0c-1 5 -1 10 -1 16h-1c-1 -3 -1 -7 -2 -10v0c-1 -6 -2 -12 -1 -19c0 -1 1 -1 1 -2v-4v-1v-1h1v-2v-2v-1v0v-1l1 -1c0 -1 1 -1 1 -2v0c-1 -1 -1 0 -2 0v0v0c-1 0 0 1 -1 2c-2 3 -3 6 -5 8h-1l-3 9c-1 2 -1 3 -1 5c0 1 0 3 -1 4
v1c0 2 -1 3 -1 5s-1 5 0 7c0 1 1 2 0 2h-1c-1 0 -1 0 -1 -1c-1 -1 -2 -3 -3 -4v-2l-2 -2c0 0 -1 0 -1 -1h-1v0c-1 -1 -3 -2 -3 -4v0l-3 -9v-1c-1 -2 -2 -4 -3 -5c0 -1 -1 -2 -1 -3s-1 -1 -1 -2c-1 -1 -1 -2 -1 -3h-1v-1v-2c0 -2 1 -3 2 -4c1 -2 1 -4 2 -6v0v0v-1v0
c0 -1 0 -1 1 -2v-1s1 -4 2 -5s1 -3 2 -4c1 -2 1 -3 3 -2c1 1 3 1 4 2c2 1 5 3 8 4v0l9 3c2 1 3 2 5 3s3 1 5 2h1c3 1 6 3 9 4l1 1c2 1 3 1 4 2c1 0 1 1 2 1s2 1 3 1v0v0h2l1 1c1 0 2 1 3 1h1c1 0 1 1 1 2c0 6 1 12 1 17v1v1v0v1v1v0l1 1v0c2 3 3 6 4 9c2 3 4 6 5 10
c1 5 1 10 2 15s1 11 2 16c1 6 3 13 4 19h1v3c1 1 1 2 1 4v0v0v1c0 1 1 2 1 3c1 3 3 7 4 10c0 1 1 1 1 1c2 3 2 6 3 9c1 1 2 1 2 2v1v0v0v0v0c1 2 2 5 3 7v0c1 3 4 6 4 10v1c0 2 1 5 2 7v2s0 2 -1 3c-5 2 -10 5 -15 7c-1 0 -2 1 -3 2v0c2 2 4 3 6 2c1 0 2 -1 3 -1v0v0
c2 -1 4 -1 6 -2v0v0h1v1c0 3 2 5 0 8v0c-2 3 -4 6 -1 9v0v0v0l1 1v0v0v0v1v0zM299 239l70 25c1 1 2 1 2 2c0 4 1 8 1 12c0 5 0 10 1 15v0v0h-2c-30 -9 -58 -17 -88 -26c-2 0 -2 -1 -1 -2c5 -8 9 -17 14 -25c1 -1 1 -1 2 -1h1zM263 47v0v0v0zM246 391v0v0zM246 391v0v0v0z
M246 390v0v0zM133 74h-1h1zM133 74v0v0zM83 191v1c-1 2 -2 5 -2 7c1 -2 2 -5 2 -7v-1zM185 -3v0l-1 1v-1v0v0v0h1v0v0v0v0v0v0zM185 -3v0v0v0v0zM184 -3v0v0h1h-1zM185 -3v0v0zM185 -3v0v0zM184 -3v0v0v0v0zM184 -3v0v0zM153 127c-7 1 -13 1 -20 -1h-1v0c2 4 6 6 10 9
c1 0 1 1 2 1c12 -1 24 -2 36 -4c3 -1 6 0 8 3c1 2 4 4 5 6c1 1 1 2 2 2s2 -1 2 -3c-1 -6 -4 -11 -9 -15c-1 -1 -1 0 0 -1c5 -5 5 -11 6 -18c0 -3 -1 -6 -2 -9c-1 -1 0 -2 1 -3l4 -4s2 -1 3 0l3 3c2 3 5 5 8 7c2 1 4 2 5 0c1 -1 2 -1 0 -2c-3 -1 -5 -4 -7 -7
c-1 -2 -3 -4 -4 -6c-3 -4 -8 -4 -12 -1c-2 2 -4 2 -5 4c-2 3 -5 3 -8 3c1 2 3 4 5 6s3 5 3 8c0 4 -2 8 -3 12c-1 2 -2 5 -4 6c-1 1 -2 1 -3 1c-8 1 -17 2 -25 3zM264 122c1 1 2 1 2 0c-5 -5 -9 -9 -14 -13c-1 -1 -3 -1 -4 -1c-2 0 -3 1 -5 1s-5 1 -7 2c-1 1 -3 1 -5 1
c-3 0 -5 2 -7 3c-1 1 -2 3 -2 4c0 3 0 3 -3 4c-4 1 -8 3 -11 7c-1 2 -2 4 -2 6s-1 5 -1 7c0 1 0 1 1 1s1 0 2 -1s2 -2 2 -3s1 -3 1 -4c1 -5 5 -5 9 -6c13 -2 26 -2 39 0c1 0 2 0 3 -1s1 -2 0 -2c-2 -1 -4 -1 -6 -2c-6 -2 -12 -4 -19 -4c-3 0 -5 1 -8 1h-2c0 -2 2 -3 3 -4
c2 -1 5 -3 8 -3c5 0 10 1 15 2c1 0 1 0 2 1c3 2 6 3 9 4zM223 82c1 -1 2 -2 2 -4c0 -1 0 -1 -1 -1c-2 -1 -3 -2 -5 0c-1 1 -2 0 -3 0c-5 -1 -9 -3 -13 -5c-3 -1 -7 -1 -10 1c-4 3 -7 3 -11 1s-8 -3 -12 -2c-1 0 -1 1 -1 1c-2 2 -2 2 0 3c1 0 1 1 2 2s2 0 4 0s4 1 6 2
c4 3 9 1 13 -1v0c3 -2 6 -3 9 0c1 1 4 1 6 1c4 1 9 1 13 3c1 0 1 0 1 -1zM205 69c5 0 10 -2 13 -6c1 -1 0 -2 -1 -2h-1c-4 2 -9 2 -13 3h-2c-4 -1 -7 -3 -11 -4c-3 -1 -4 -5 -5 -8c-1 -2 -1 -4 -2 -6c0 -1 -1 -1 -2 -1s-1 0 -1 1c-1 2 -2 4 -2 6c1 3 1 5 2 8c2 4 6 6 10 7
c5 2 10 2 15 2zM170 114h-2l-6 -3c-4 -1 -8 -1 -11 2s-6 2 -10 1c-1 0 -2 0 -3 1s-2 2 0 3s5 1 7 2c2 0 4 -1 6 -1c6 -1 12 -1 18 0c3 1 6 1 9 0h2c1 -1 1 -2 1 -3s-1 0 -2 0c-3 0 -6 -2 -9 -2zM364 274c-3 0 -6 2 -6 5s3 6 6 6s5 -2 5 -5s-2 -6 -5 -6zM21 241
c-4 3 -4 9 0 13c1 1 3 2 4 2c3 0 5 -1 6 -4c2 -5 1 -8 -2 -11c-2 -2 -6 -2 -8 0zM273 363h1h-1zM273 394c-1 1 -2 3 -3 4c1 -1 2 -3 3 -4zM268 406c2 -2 5 -4 7 -6c-2 2 -5 4 -7 6zM295 360l-13 -9c4 3 9 6 13 9z" />
    <glyph glyph-name="uniF14D" unicode="&#xf14d;" horiz-adv-x="495" 
d="M349 119c86 -13 144 -43 146 -76c0 -28 -44 -54 -108 -69h-2c-6 0 -11 5 -11 10c0 4 4 9 8 10v0c48 14 78 32 78 45v0c-1 13 -34 27 -86 34v0h-1c-2 0 -4 -3 -4 -5v-1v0c3 -12 5 -22 5 -34c0 -2 -1 -5 -3 -7s-4 -4 -7 -4h-64c-5 0 -11 5 -11 10c-5 60 -57 112 -111 167
c-30 31 -60 62 -83 95c-25 35 -39 70 -42 105c0 3 3 6 5 8s4 3 6 3s3 -1 4 -1c22 -9 45 -16 66 -21c4 -1 8 -4 10 -7c15 -42 54 -81 95 -123c1 -1 4 -3 7 -3s6 2 8 3c41 42 80 82 95 124c2 3 5 6 9 7c21 4 44 11 65 21c2 1 4 1 5 1c2 0 4 -1 6 -2c3 -2 4 -7 4 -10
c-3 -35 -16 -70 -41 -105c-23 -34 -53 -65 -83 -95c-2 -2 -5 -4 -7 -6s-3 -7 0 -10c6 -9 13 -17 19 -26c9 -13 17 -26 23 -38zM178 153c19 -20 32 -34 42 -48c2 -3 4 -10 1 -16c-11 -19 -17 -39 -18 -57c-1 -5 -6 -10 -11 -10h-64c-3 0 -5 2 -7 4s-4 4 -4 7c1 12 3 22 6 34
v0v1c0 2 -3 5 -5 5v0c-51 -7 -84 -20 -84 -34v0c0 -13 30 -31 78 -45v0c4 -1 7 -6 7 -10c0 -5 -5 -10 -10 -10h-2v0c-64 15 -107 40 -107 69c0 33 58 63 144 78c5 10 11 19 18 30c1 1 5 5 9 5c3 0 6 -2 7 -3zM239 309c-22 22 -34 49 -35 55c-1 1 -1 2 -1 4c0 5 4 10 9 10
c3 0 15 -1 35 -1v0c19 0 32 1 36 1c5 0 9 -5 9 -10c0 -2 -1 -3 -1 -4c-3 -7 -15 -34 -37 -55c-2 -3 -6 -3 -8 -3v0c-2 0 -5 1 -7 3z" />
    <glyph glyph-name="uniF132" unicode="&#xf132;" 
d="M-8 448zM313 404v-55c-18 16 -37 29 -57 37s-40 12 -63 12c-44 0 -78 -14 -102 -41s-36 -66 -36 -117s12 -91 36 -118s58 -40 102 -40c23 0 43 4 63 12s39 21 57 37v-55c-18 -12 -37 -22 -58 -28c-20 -6 -42 -10 -65 -10c-59 0 -105 18 -139 54s-51 86 -51 148
s17 111 51 147s80 54 139 54c23 0 45 -3 65 -9c21 -6 40 -16 58 -28v0zM249 317v-67h68v-21h-68v-67h-20v67h-67v21h67v67h20zM445 317v-67h67v-21h-67v-67h-21v67h-67v21h67v67h21z" />
    <glyph glyph-name="uniF133" unicode="&#xf133;" 
d="M-8 448zM458 319c0 26 1 52 1 78h16v-74c12 3 25 7 37 10v-41c-12 -3 -25 -7 -37 -10v-100c12 3 25 6 37 9v-41c-12 -3 -25 -7 -37 -10v-72h-17v68c-25 -7 -48 -13 -73 -20v-78h-17v74c-12 -3 -25 -7 -37 -10v41c12 3 25 7 37 10v101c-12 -3 -25 -7 -37 -10v41
c12 3 25 7 37 10v72h17v-68c25 7 48 13 73 20v0zM385 258v-100c25 7 48 12 73 19v101c-25 -7 -48 -13 -73 -20zM86 377c29 14 63 19 95 15c31 -3 60 -17 81 -40c15 -16 25 -37 31 -58c-15 -3 -29 -7 -44 -10c-8 25 -22 49 -46 61c-27 13 -58 12 -86 3
c-31 -10 -53 -38 -62 -68c-11 -34 -10 -72 -4 -107c5 -28 19 -56 43 -73c26 -19 61 -23 92 -15c24 6 44 23 55 45c6 12 10 24 13 37c15 -4 30 -7 45 -11c-8 -31 -23 -62 -49 -83c-27 -22 -62 -31 -96 -30c-38 0 -79 11 -106 40s-41 68 -46 107c-4 37 -2 76 12 111
c13 33 40 60 72 76v0z" />
    <glyph glyph-name="uniF16B" unicode="&#xf16b;" horiz-adv-x="410" 
d="M-8 448zM33 447v0h345c17 0 32 -14 32 -30v-1c0 -1 -1 -2 -1 -3l-34 -310c1 -12 -6 -24 -17 -30l-137 -67c-5 -2 -9 -3 -14 -3s-9 1 -14 3l-138 67c-6 3 -11 8 -14 14c-3 4 -4 7 -5 12l-34 313c0 1 -2 2 -2 3v1c0 17 16 31 33 31v0zM144 346c-19 0 -31 -4 -40 -10
s-13 -16 -13 -30v-22c0 -11 -2 -19 -7 -23s-13 -6 -25 -6h-8v-24h8c12 0 20 -3 25 -7s7 -11 7 -22v-21c0 -14 4 -25 13 -31s21 -9 40 -9h28v24h-9c-12 0 -19 2 -23 5s-6 10 -6 20v18c0 11 -1 20 -5 25s-11 8 -20 10c9 2 16 6 20 11s5 13 5 24v18c0 10 2 17 6 20s11 5 23 5h9
v25h-28zM238 346v-25h9c12 0 19 -2 23 -5s5 -10 5 -20v-18c0 -11 2 -19 6 -24s11 -9 20 -11c-9 -2 -16 -5 -20 -10s-6 -14 -6 -25v-18c0 -10 -1 -17 -5 -20s-11 -5 -23 -5h-9v-24h27c19 0 32 3 41 9s13 17 13 31v21c0 11 2 18 7 22s13 7 25 7h7v24h-7c-12 0 -20 2 -25 6
s-7 12 -7 23v22c0 14 -4 24 -13 30s-22 10 -41 10h-27z" />
    <glyph glyph-name="uniF16C" unicode="&#xf16c;" horiz-adv-x="408" 
d="M0 422h408l-38 -415l-166 -45l-166 45zM326 287l5 50h-256l6 -50h130l-7 -3l-119 -49l4 -49h34l143 -1l-4 -65l-58 -16l-56 14l-3 40h-52l7 -78l104 -31l104 31l14 155h-118v0v0z" />
    <glyph glyph-name="uniF16D" unicode="&#xf16d;" horiz-adv-x="442" 
d="M-29 448zM66 412v0h376l-67 -334l-201 -66l-174 66l18 89h74l-7 -36l105 -41l122 41l17 84h-302l15 75h302l9 48h-302z" />
    <glyph glyph-name="uniF12D" unicode="&#xf12d;" horiz-adv-x="455" 
d="M454 93v0v0c-1 -9 -146 145 -146 145h3s143 -137 143 -139v-6zM148 140v0v0c2 5 75 -63 70 -69l-1 -1c-1 0 -2 -1 -2 -1c-5 -9 -73 59 -69 69c1 0 1 1 1 1c1 0 1 1 1 1zM245 46v0v0c7 -3 71 -71 71 -72h-7l-67 68c2 1 3 4 3 4zM455 100c-3 -69 -61 -125 -131 -125h-9
l-71 70c5 9 11 16 16 25h64c20 0 37 17 37 37s-17 36 -37 36h-37c3 15 4 31 4 47s-2 32 -4 48h23l145 -143v5v0v0zM38 405v0v0c118 0 216 -97 215 -215c0 -44 -14 -86 -36 -120l-70 69c7 16 12 33 12 51c0 66 -54 120 -121 120h-38v95h38zM324 405v0v0
c73 0 131 -59 131 -130c0 -32 -11 -62 -30 -84c19 -23 30 -52 30 -84c0 -4 -1 -8 -1 -12l-145 143h15c20 0 37 16 37 36s-17 36 -37 36h-64c-21 39 -53 72 -90 95h154zM315 -25h-144c29 18 54 42 73 70l71 -70v0zM218 70v0v0c-38 -58 -105 -96 -180 -97h-38v95h38
c49 0 91 29 110 71z" />
    <glyph glyph-name="uniF116" unicode="&#xf116;" horiz-adv-x="390" 
d="M-8 448zM195 448c94 0 195 -28 195 -90v-265c0 -62 -101 -90 -195 -90s-195 28 -195 90v265c0 62 101 90 195 90zM362 93v52c-29 -30 -98 -45 -167 -45s-138 15 -167 45v-52c0 -35 75 -63 167 -63s167 28 167 63zM362 177v52c-29 -30 -98 -45 -167 -45s-138 15 -167 45
v-52v0v-1c0 -34 75 -62 167 -62s167 28 167 62v1v0zM362 260v48c-36 -28 -103 -41 -167 -41s-131 13 -167 41v-48v0v0c0 -34 75 -63 167 -63s167 29 167 63v0v0zM195 295c92 0 167 28 167 63s-75 62 -167 62s-167 -27 -167 -62s75 -63 167 -63zM306 86c0 9 5 14 14 14
s14 -5 14 -14s-5 -14 -14 -14s-14 5 -14 14zM306 170c0 9 5 14 14 14s14 -5 14 -14s-5 -14 -14 -14s-14 5 -14 14zM306 253c0 9 5 14 14 14s14 -5 14 -14s-5 -14 -14 -14s-14 5 -14 14z" />
    <glyph glyph-name="uniF13E" unicode="&#xf13e;" horiz-adv-x="410" 
d="M-8 448zM240 -64l-81 17l-82 53l-59 91l-16 83l-2 68s8 46 13 55s37 59 37 59l61 52l84 34l56 -2l57 -12l47 -24l39 -57s7 -30 9 -39s7 -68 7 -68l-23 -65l-47 -48l-64 -27l-66 20l-40 37l-16 56l16 52l40 37l48 4l34 -18l25 -36l-43 34l-27 6l-32 -9l-18 -18l-18 -29
v-45l22 -32l43 -27h44l45 22l22 32s14 34 14 48s1 43 -4 54s-28 57 -28 57s-20 17 -29 22s-39 17 -39 17s-34 6 -45 6s-54 -14 -54 -14l-48 -25l-43 -31l-29 -52l-9 -53l2 -49l4 -39l18 -41l23 -45l68 -72l51 -28l33 -11v0z" />
    <glyph glyph-name="uniF103" unicode="&#xf103;" 
d="M0 448h512v-512h-512v512zM218 113c17 18 29 46 29 84c0 36 -11 61 -29 78c-17 16 -40 24 -74 24c-20 0 -39 -1 -54 -4v-208c11 -2 25 -2 45 -2c36 0 65 9 83 28zM404 87l42 152h-33l-15 -67c-4 -18 -7 -34 -9 -51v0c-3 17 -7 33 -11 51l-16 67h-28l-17 -69
c-4 -16 -7 -32 -10 -49h-1c-2 17 -5 33 -8 49l-14 69h-35l40 -152h31l17 62c4 15 7 30 10 49v0c3 -18 6 -33 10 -49l16 -62h31zM147 269c42 0 64 -26 64 -73c0 -54 -26 -81 -69 -81c-7 0 -13 0 -18 1v151c5 1 12 2 23 2z" />
    <glyph glyph-name="uniF10B" unicode="&#xf10b;" horiz-adv-x="399" 
d="M299 328c14 -9 100 -62 100 -178s-92 -193 -198 -193c-32 0 -62 8 -89 21h-1c-1 0 -1 1 -2 1h-1c-1 0 0 1 -1 1s-1 1 -2 1s-1 1 -2 1s0 1 -1 1h-1c-4 2 -7 5 -11 7c-2 1 -4 3 -6 4s-2 2 -4 3c-2 2 -5 3 -7 5l-3 3c-2 2 -5 4 -7 6l-3 3l-6 6l-3 3c-2 2 -4 5 -6 7l-2 2
c-2 3 -4 5 -6 8c-1 1 -1 2 -2 3c-2 3 -3 5 -5 8l-2 2c-2 3 -3 7 -5 10l-1 1c-2 4 -3 7 -5 11l-1 1c-10 24 -16 50 -16 78c0 57 22 98 46 126c19 23 40 37 52 44c3 2 5 3 7 4c19 11 33 15 55 33l2 2c7 6 13 14 17 27c2 6 3 14 4 23v0c16 -19 35 -41 49 -50c2 -2 5 -4 7 -5
c19 -11 39 -17 59 -29zM73 247c26 13 60 34 83 57s25 33 25 38c0 4 -4 5 -4 7c0 0 1 2 4 4c7 5 10 16 10 20s0 12 -5 28c0 1 -1 2 -1 3v1v-4c-4 -26 -13 -34 -24 -43c-2 -2 -5 -4 -7 -5c-17 -12 -33 -20 -37 -22c-2 -1 -5 -2 -8 -4c-11 -6 -28 -16 -43 -30
c-4 -3 -7 -7 -10 -11c-1 -1 -1 0 -2 -1v-1c-2 -2 -4 -3 -5 -5c-7 -7 -11 -14 -14 -20c-4 -8 -5 -13 -3 -17c4 -6 15 -8 41 5zM301 -2c3 3 2 6 2 8s-2 4 -6 1c-9 -7 -29 -15 -57 -15s-41 6 -50 13c-1 1 0 1 -3 1s-5 -1 -7 -3s-3 -6 0 -9c19 -18 51 -16 75 -14s44 16 46 18z
M224 38c-5 -4 -6 -7 -3 -11s6 -2 13 4s13 12 28 12s18 -6 21 -12s4 -6 7 -4c4 2 5 4 3 8s-5 12 -10 16s-13 4 -20 4s-11 1 -18 -2s-16 -11 -21 -15zM341 35c12 -1 18 5 29 20s15 39 15 53s-6 37 -28 37c-21 0 -63 -44 -85 -44c-26 0 -62 51 -113 51c-40 0 -73 -33 -73 -67
c0 -19 7 -34 20 -43c9 -6 17 -9 43 -9c44 0 99 54 124 53c20 -1 52 -50 68 -51z" />
    <glyph glyph-name="uniF14E" unicode="&#xf14e;" horiz-adv-x="479" 
d="M238 420c-1 7 -1 14 0 14c2 0 15 -10 23 -19c38 -40 59 -110 43 -145c-15 -34 -66 -37 -127 -7c-25 12 -45 28 -47 38c-2 8 6 14 29 21c47 15 59 20 70 32c9 9 13 25 11 40c-1 6 -1 18 -2 26zM344 302c6 4 6 3 11 -1s10 -13 14 -28l6 -18c2 -4 2 -7 2 -9
c0 -6 14 -32 21 -39c11 -11 21 -15 45 -13c11 1 23 2 28 3c6 1 8 0 8 -2c0 -4 -26 -30 -38 -38c-40 -25 -89 -39 -115 -30c-19 6 -25 11 -32 26c-4 7 -4 12 -4 31s2 24 7 40c7 22 11 30 22 47c5 7 8 14 8 14c0 2 12 14 17 17zM102 259c17 4 50 5 60 1c18 -8 25 -18 29 -39
c5 -26 -8 -73 -28 -103c-3 -4 -5 -7 -5 -8s-1 -2 -2 -4c-1 -1 -5 -5 -8 -9c-12 -15 -21 -15 -28 0c-4 9 -12 30 -12 34c0 1 -1 6 -3 10s-4 9 -4 10c0 4 -11 22 -17 29c-4 4 -11 10 -16 12c-8 4 -11 4 -29 3c-11 -1 -24 -1 -29 -2l-10 -2l4 6c16 25 59 52 98 62zM216 140
c36 4 82 -10 117 -36c17 -13 22 -23 14 -30c-5 -4 -13 -8 -47 -18c-29 -9 -43 -16 -52 -29c-7 -10 -9 -25 -6 -51c1 -10 3 -19 2 -20c-3 -3 -28 18 -39 35c-10 15 -20 33 -26 51c-5 14 -6 21 -7 39c-1 20 0 23 4 32c2 6 7 12 9 14c6 7 19 12 31 13z" />
    <glyph glyph-name="uniF15A" unicode="&#xf15a;" horiz-adv-x="469" 
d="M-8 448zM239 236l75 -32l-81 -30l-69 30zM126 196l107 -43v-150l-109 48zM351 196v-140l-99 -40v142zM115 443l75 -33l-80 -29l-70 29zM3 402v0l107 -42v-151l-110 48zM228 402v-139l-99 -40v142zM357 448l75 -32l-81 -30l-69 30zM244 408l107 -43v-150l-109 48zM469 408
v-140l-99 -40v142z" />
    <glyph glyph-name="uniF12E" unicode="&#xf12e;" horiz-adv-x="431" 
d="M306 137v0v0v0v0v0zM306 137v0v0v0v0v0zM280 365c35 3 55 40 76 34c-14 -9 -28 -27 -48 -56c-5 -7 -38 21 -28 22zM332 296h1c4 1 8 2 11 4c1 0 2 1 2 1c7 2 9 8 8 13l-1 10h-10h-4c-3 -1 -4 -1 -5 -1c-2 1 -7 1 -8 2c-2 1 -3 1 -5 1h-12v-12c0 -6 5 -9 10 -13
s9 -5 13 -5zM293 34v38h-44v-38h44zM306 137v0v0v0v0v0zM306 137v0v0v0v0v0zM338 105c-5 11 -11 21 -18 30c-2 2 -4 5 -6 7l-1 1h-1v1v0l-1 1h-2c-2 1 -3 1 -5 1c-6 1 -11 2 -17 2c-12 0 -23 0 -34 -1c-23 -1 -45 -3 -68 -5c-11 -1 -23 -2 -34 -4c-6 -1 -11 -2 -17 -3
c-3 -1 -6 -1 -9 -2c-1 0 -2 -1 -4 -2c-1 0 -1 0 -2 -1c0 0 -1 -1 -2 -1s-1 -1 -2 -2v0c-2 -2 -3 -4 -4 -6s-3 -5 -4 -7c-2 -4 -5 -9 -7 -14s-4 -9 -6 -14c-1 -2 -1 -5 -2 -7c0 -1 -1 -2 -1 -3l-1 -2v-1l1 -1h1h10c1 1 0 2 1 3c1 2 2 5 3 7c2 5 3 9 5 14c2 4 3 9 5 13
c1 2 3 4 4 6l3 6h1l1 1c1 0 2 1 3 1c2 1 5 1 8 2c5 1 11 2 17 3c11 2 22 3 33 4c22 2 45 5 67 6c11 1 23 0 34 0c6 0 11 0 16 -1h3l1 -1l1 -1c2 -2 3 -4 5 -6c7 -8 12 -18 17 -28c4 -9 7 -18 9 -28h9c-1 6 -2 11 -4 16c-2 6 -4 11 -6 16zM373 114c0 6 -4 11 -10 12
c-5 1 -11 0 -13 -3c-3 -6 -7 -14 -26 -15c-1 0 -2 -1 -2 -2s1 -2 2 -2c20 1 26 8 30 16c1 1 6 2 10 0c3 -1 4 -3 4 -6c1 -11 -11 -32 -17 -42h6c7 12 17 30 16 42zM341 133c-2 -13 21 -27 36 -27c12 0 29 6 26 15c-2 7 -15 3 -15 3c0 1 15 14 8 21c-6 7 -16 -8 -19 -7
s2 17 -8 18c-11 1 -9 -21 -13 -21v0c-228 -25 0 0 0 0c-3 0 -14 4 -15 -2zM345 133c1 0 6 -2 11 -1c-2 0 -2 0 0 0c11 1 5 21 13 20c6 -1 -4 -14 6 -17s13 12 18 7c5 -6 -10 -11 -8 -19c2 -7 14 1 15 -3s-10 -11 -23 -11c-14 0 -33 14 -32 24zM372 145c0 -2 -2 -11 3 -12
c4 -1 7 1 10 6c-2 -2 -6 -5 -9 -4c-3 2 -4 5 -4 10zM387 128c-4 -5 -3 -8 0 -9s8 3 7 3s-8 -2 -9 1c-1 2 1 4 2 5zM280 365c35 3 55 40 76 34c-14 -9 -28 -27 -48 -56c-5 -7 -38 21 -28 22zM280 368c-2 0 -5 -2 -5 -5c1 -6 28 -32 35 -22c20 29 34 47 48 55l5 4l-6 1
c-24 6 -44 -30 -77 -33zM281 362c33 4 51 30 67 34c-13 -11 -25 -26 -42 -51c-5 -1 -21 11 -25 17zM61 374l-4 -4l5 1c32 4 55 -21 70 -21c14 0 33 12 29 21c1 -2 1 -2 0 0c-2 5 -21 0 -32 4c-23 8 -51 14 -68 -1zM68 375c16 9 40 4 60 -3c12 -4 27 -2 30 -3
c1 -4 -13 -16 -26 -16c-11 0 -34 23 -64 22zM304 349c-4 0 -4 -2 -4 -4c-1 -9 4 -41 23 -40c16 1 56 44 53 73c-1 10 -7 18 -19 23c-16 6 -48 -52 -53 -52zM304 346c13 1 39 56 52 51c11 -4 15 -11 16 -19c3 -27 -36 -68 -49 -69c-15 -1 -21 30 -19 37zM133 356
c-9 -4 -59 43 -79 11c-14 -23 27 -64 55 -68c27 -4 33 46 29 55c-1 1 -3 3 -5 2zM134 353c3 -7 -1 -55 -24 -51c-27 4 -65 45 -53 63c19 30 60 -18 77 -12zM96 283c1 2 1 5 1 7s0 5 1 7c0 1 0 3 1 4s1 2 1 3c1 2 2 5 3 7c4 9 8 18 14 26s12 16 19 22c7 7 16 11 25 15
s18 6 28 7s19 1 29 1s18 -1 28 -2s20 -3 29 -6c5 -2 9 -5 13 -7s8 -5 12 -9c4 -3 7 -7 10 -11s4 -9 6 -14s3 -9 4 -14s2 -10 3 -14c1 -2 1 -5 2 -7s1 -4 2 -6c2 -4 3 -10 5 -14c6 -18 13 -36 16 -55c2 -9 3 -19 3 -29s-1 -19 -4 -28c-1 -2 -1 -5 -2 -7s-2 -5 -3 -7
c0 -1 0 -2 -1 -3s-1 -2 -2 -3c-1 -2 -3 -4 -5 -6c-6 -7 -13 -13 -22 -18s-18 -8 -27 -11s-19 -5 -29 -7s-19 -3 -28 -4c-5 -1 -10 -1 -15 -2h-7c-2 0 -5 -1 -7 -1c-20 -1 -39 2 -58 7c-9 3 -18 6 -27 10s-18 9 -26 14l-12 9c-1 1 -2 1 -3 2s-1 2 -2 3c-2 2 -4 4 -5 6
c-6 8 -10 18 -11 28c-2 10 0 21 3 30c3 10 6 18 11 27l15 24c2 4 5 8 7 12c2 5 4 10 5 14v0zM103 281c-1 -5 -4 -10 -6 -14s-5 -8 -7 -12c-5 -8 -10 -17 -14 -25s-9 -16 -11 -25s-4 -18 -3 -27s6 -17 11 -24c1 -2 3 -3 4 -5c1 -1 1 -2 2 -3s2 -1 3 -2c3 -3 7 -6 11 -9
c8 -5 15 -9 24 -13s18 -7 27 -9s18 -5 27 -6s19 -1 28 -1h7l7 1c5 0 9 1 14 2c9 1 19 1 28 3s19 4 28 6s17 5 26 9c8 4 16 9 23 16c2 2 4 3 5 5c1 1 1 2 2 3l2 2c2 2 3 5 4 7s1 4 2 6c2 9 3 20 2 29s-2 19 -4 28c-4 18 -11 36 -18 54c-2 4 -4 9 -6 13l-2 6c-1 2 -2 5 -3 7
l-3 15s-3 9 -4 13c-3 9 -7 17 -14 23c-6 6 -14 10 -23 14s-18 6 -27 8s-19 2 -28 3c-9 0 -19 0 -28 -1s-19 -3 -28 -7s-16 -9 -23 -15s-13 -14 -17 -22s-7 -17 -10 -26c-1 -2 0 -5 -1 -7c0 -1 -1 -2 -1 -3s-1 -1 -1 -2v-2l-3 -6c0 -2 -1 -5 -2 -7v0zM222 250
c0 -3 -6 -5 -12 -5s-11 2 -11 5s5 5 11 5s12 -2 12 -5zM201 265c3 2 17 1 19 -1s5 -9 1 -12c-2 -1 -1 3 -5 2s-2 -6 -5 -6c-5 0 -1 6 -5 7c-3 1 -4 -3 -6 -3c-5 1 -3 11 1 13zM209 266c5 0 10 -1 11 -2c2 -2 6 -9 1 -12h-1c-1 0 -1 3 -3 3h-1c-4 -1 -2 -7 -5 -7v0
c-5 0 -1 6 -5 7h-1c-3 0 -4 -2 -5 -2v0c-5 1 -3 10 1 12c1 1 5 1 8 1zM209 265v0c5 0 9 -1 10 -2s3 -5 3 -8c0 -1 0 -1 -1 -2h-1c-1 1 -1 3 -3 3l-1 -1c-3 -1 -3 -2 -4 -4c0 -2 0 -2 -1 -2v0c-1 0 -2 0 -2 2s0 4 -3 5h-1c-2 0 -3 -1 -4 -2l-1 -1c-1 0 -2 1 -2 2
c-1 2 1 7 3 8c1 1 4 2 8 2zM170 166c-2 2 -2 5 -3 8l-3 9c-2 6 -3 12 -6 17s-7 10 -11 14s-9 6 -15 7v0v0c-2 1 -3 2 -2 4s2 3 4 3c13 -3 27 -5 40 -5s27 0 40 2s26 4 39 7s26 7 39 11c2 1 3 0 4 -2c1 -1 0 -3 -1 -4v0v0s-1 0 -2 -1s0 -1 -1 -2s-2 -3 -3 -4l-6 -9
c-4 -6 -8 -12 -11 -18s-7 -13 -10 -19c-2 -3 -3 -6 -4 -9c-1 -2 -1 -3 -2 -5c0 -1 -1 -2 -1 -3v0v0v-1h-1l-1 -1c-3 -1 -8 -2 -11 -3s-6 -1 -10 -1c-7 -1 -14 -2 -21 -2s-14 -1 -21 0c-4 0 -8 1 -11 2c-2 1 -3 1 -5 2s-3 2 -4 3zM170 166c1 -1 2 -2 4 -3s3 -1 5 -2
c3 -1 7 -1 11 -1c7 -1 14 0 21 0s14 1 21 2c3 1 7 1 10 2s7 2 10 3l1 1h1v3c1 2 1 3 2 5c1 3 3 7 4 10c3 7 6 13 9 19s6 13 9 19c2 3 4 7 6 10c1 2 2 3 3 4s0 2 1 3l2 2v0l4 -6c-13 -4 -27 -8 -40 -11s-26 -5 -40 -7s-27 -2 -41 -2s-27 2 -41 5l2 7v0c6 -4 12 -7 16 -12
s7 -10 9 -16s4 -11 5 -17l3 -9s1 -7 3 -9zM217 201c27 0 45 -15 44 -18s-4 -9 -7 -17c-1 -3 -29 -9 -53 -9c-14 0 -26 2 -31 7c-3 4 12 35 43 37h4zM217 198c24 0 40 -11 42 -14c0 -1 -1 -2 -1 -3c-1 -3 -4 -8 -6 -14c-4 -2 -28 -7 -51 -7c-14 0 -25 2 -29 6c0 1 2 6 6 12
s15 19 35 20h4v0zM183 217c3 -5 9 -31 11 -32s17 -5 19 -4s2 6 4 5s2 -4 4 -3c3 2 12 8 14 10c1 3 1 17 0 29c-6 -3 -41 -6 -52 -5zM187 204c-1 10 43 13 49 12v6c-7 -4 -48 -8 -53 -6c1 -1 3 -6 4 -12zM209 212c1 -2 2 -5 3 -7s1 -4 2 -6l2 -6l2 -7l-3 -1l-2 7l-1 6
c-1 2 -1 5 -2 7s-1 4 -2 6zM349 314c5 1 7 -14 5 -17s-10 -6 -13 -8s-17 -35 -26 -46s-64 -4 -74 6c-11 11 -10 45 -21 53c-2 2 -11 1 -13 1c-6 0 -10 -38 -28 -51c-4 -3 -51 -13 -69 2c-17 14 -23 49 -24 53s-9 6 -10 9s-1 14 3 14s14 -3 21 -2c72 10 99 -5 104 -6
s12 -2 19 -1c72 11 100 -7 106 -9s15 1 20 2zM169 264c12 7 23 37 20 41c-5 7 -44 16 -73 9c-4 -1 -9 -5 -11 -8c-2 -2 -2 -33 11 -42c9 -6 46 -4 53 0zM307 252c14 7 17 39 16 41c-2 3 -7 7 -10 8c-28 11 -67 7 -73 1c-4 -4 3 -35 14 -43c7 -5 44 -11 53 -7zM148 287
c-1 -7 -5 -12 -8 -11s-6 6 -5 13s5 13 8 12s6 -7 5 -14zM289 279c1 -7 -1 -13 -4 -13s-7 5 -8 12s2 13 5 13s6 -5 7 -12zM321 314c-2 1 8 -7 11 -7s9 4 11 5s-7 -2 -10 -1c-3 0 -10 2 -12 3zM147 296c0 -1 -1 -2 -2 -2s-2 1 -2 2s1 2 2 2s2 -1 2 -2zM287 288
c0 -1 -1 -2 -2 -2s-2 1 -2 2s1 2 2 2s2 -1 2 -2zM338 305c0 -1 -3 -1 -6 -1s-6 0 -6 1s3 1 6 1c4 0 6 -1 6 -1zM99 320c0 -1 -4 -1 -7 0s-5 1 -5 2s3 1 6 0c3 0 6 -1 6 -2zM298 30c0 0 -2 7 5 21s13 6 13 6s6 -7 -1 -17s-17 -10 -17 -10zM241 21c-9 -22 -30 -14 -30 -14
s-2 9 5 31s22 13 22 13s12 -8 3 -30zM225 114c0 0 13 33 16 17s-27 -65 -27 -65c0 11 11 48 11 48zM41 30c1 22 15 32 20 27s2 -15 -7 -21s-13 -6 -13 -6zM431 34c-1 7 -7 5 -7 5s-11 -9 -20 -8s-6 22 -6 22s1 18 -4 20c-6 2 -12 -5 -12 -5s-8 -9 -12 -21h-1s1 21 0 26
c-1 2 -11 2 -13 -2s-9 -34 -10 -46c0 0 -15 -13 -29 -15s-17 6 -17 6s37 10 36 40s-30 18 -33 16s-20 -12 -25 -40c0 -1 -1 -5 -1 -5s-14 -10 -22 -12c0 0 22 37 -5 54c-12 7 -22 -8 -22 -8s37 41 29 76c-4 17 -12 18 -20 15c-12 -5 -16 -11 -16 -11s-15 -22 -18 -54
s-9 -70 -9 -70s-7 -8 -13 -8c-7 0 -4 20 -4 20s5 30 5 35s-1 8 -7 10s-12 -6 -12 -6s-18 -26 -19 -30l-1 -2l-1 1s13 35 1 36s-20 -12 -20 -12s-12 -23 -13 -25l-1 1s5 26 4 32s-7 5 -7 5s-7 1 -9 -4s-10 -38 -11 -48c0 0 -19 -13 -31 -13s-11 8 -11 8s45 15 33 46
c-6 8 -12 11 -21 11s-21 -6 -28 -23c-4 -8 -5 -15 -5 -21v0s-9 -2 -13 2s-7 0 -7 0s-7 -11 0 -14s19 -5 19 -5v0c1 -5 4 -12 13 -19c14 -10 40 1 40 1l11 7s0 -10 8 -11s10 0 24 33c8 17 9 16 9 16h1s-6 -32 -4 -41s13 -8 13 -8s6 -2 10 14c5 16 13 33 13 33h1s-4 -33 2 -43
s21 -3 21 -3s10 5 12 7c0 0 12 -10 30 -8c39 8 53 18 53 18s7 -17 28 -19c24 -2 37 14 37 14s0 -11 8 -14s14 15 14 15l14 38h2s0 -24 14 -28s32 10 32 10s4 2 3 9z" />
    <glyph glyph-name="uniF112" unicode="&#xf112;" horiz-adv-x="510" 
d="M0 192c0 170 85 255 255 255s255 -85 255 -255s-85 -255 -255 -255s-255 85 -255 255zM357 199v0l34 136l-136 -34l27 -28l61 14l-14 -60zM310 10v0l34 137l-28 28l-25 -97l-55 55l16 63l-64 -15l-55 55l97 24l-27 28l-137 -34z" />
    <glyph glyph-name="uniF11F" unicode="&#xf11f;" horiz-adv-x="500" 
d="M0 448zM99 310h50c1 0 3 0 4 -1c2 -1 2 -3 2 -5v-25h-27c-4 0 -6 -1 -8 -3s-2 -5 -2 -9v-114c0 -4 1 -7 2 -9s4 -3 8 -3h27v-25c0 -2 0 -4 -2 -5s-3 -1 -4 -1h-53c-3 0 -6 1 -8 3s-3 5 -3 8v67h-70c-5 0 -10 2 -12 5s-3 6 -3 10v10c0 4 1 7 3 10s6 5 11 5h71v68
c0 5 1 9 4 11s6 3 10 3zM351 310h50c4 0 7 -1 10 -3s5 -6 5 -11v-68h70c5 0 9 -2 11 -5s3 -6 3 -10v-10c0 -4 -1 -7 -3 -10s-6 -5 -11 -5h-70v-67c0 -3 -2 -6 -4 -8s-4 -3 -7 -3h-54c-1 0 -3 0 -4 1c-2 1 -2 3 -2 5v25h27c4 0 6 1 8 3s2 5 2 9v114c0 4 -1 7 -2 9s-4 3 -8 3
h-27v25c0 2 0 4 2 5s3 1 4 1zM140 263v0h110v-27l-27 -27l27 -27v-27h-110c-3 0 -5 2 -5 6v96c0 4 2 6 5 6zM267 263v0h93c3 0 6 -2 6 -6v-95c0 -4 -3 -6 -6 -6h-93v27l-27 27l27 26v27zM191 228c-5 0 -9 -2 -12 -5s-5 -7 -5 -12s2 -10 5 -13s7 -5 12 -5s10 2 13 5s5 8 5 13
s-2 9 -5 12s-8 5 -13 5zM309 228c-5 0 -9 -2 -12 -5s-5 -7 -5 -12s2 -10 5 -13s7 -5 12 -5s10 2 13 5s5 8 5 13s-2 9 -5 12s-8 5 -13 5z" />
    <glyph glyph-name="uniF13F" unicode="&#xf13f;" 
d="M-8 448zM256 448c141 0 256 -115 256 -256s-115 -256 -256 -256h-198c-32 0 -58 26 -58 58v198c0 141 115 256 256 256zM331 387c-66 0 -120 -54 -120 -120v-63h-50c-16 0 -29 -12 -29 -28s12 -28 28 -28h42c5 0 9 -4 9 -9v-55c0 -35 -28 -64 -63 -64c-12 0 -15 2 -23 2
c-17 0 -29 -11 -29 -27c0 -13 11 -24 25 -28c9 -2 17 -4 27 -4c66 0 120 55 120 121v63h50c16 0 28 12 28 28s-12 28 -28 28h-41c-5 0 -9 4 -9 9v55c0 35 28 64 63 64c12 0 15 -2 23 -2c17 0 28 11 28 27c0 13 -10 24 -24 28c-9 2 -17 3 -27 3z" />
    <glyph glyph-name="uniF104" unicode="&#xf104;" 
d="M0 448h512v-512h-512v512zM207 266v31h-106v-206h34v88h67v31h-67v56h72zM369 91l42 149h-33l-15 -66c-4 -17 -7 -34 -9 -50v0c-3 16 -7 33 -11 50l-17 66h-27l-17 -68c-4 -15 -8 -32 -11 -48h-1c-2 16 -5 33 -8 49l-14 67v0h-34l39 -149h31l17 61c4 15 7 29 10 47h1
c3 -18 6 -31 10 -47l16 -61h31z" />
    <glyph glyph-name="uniF105" unicode="&#xf105;" 
d="M0 448h512v-512h-512v512zM293 283v36h-141v-244h45v104h90v36h-90v68h96zM368 75v257h-45v-257h45z" />
    <glyph glyph-name="uniF140" unicode="&#xf140;" horiz-adv-x="452" 
d="M-8 448zM226 438v0c-119 0 -216 -96 -216 -215s97 -215 216 -215s215 96 215 215c0 39 -10 76 -28 107c-10 -18 -20 -32 -24 -36c-11 -11 -40 0 -65 25s-36 53 -25 64c4 4 19 15 37 25c-32 19 -70 30 -110 30v0zM421 448v0c9 0 17 -2 23 -8s8 -14 8 -23s-1 -19 -4 -30
c-5 -21 -14 -43 -24 -61c18 -32 22 -64 22 -103c0 -122 -98 -220 -220 -220s-221 98 -221 220c0 39 10 75 28 107c-10 18 -21 39 -27 59c-3 10 -6 19 -6 28s1 17 7 23c5 5 13 7 21 7c26 0 61 -16 89 -32c32 18 69 29 109 29c39 0 75 -7 107 -25c18 10 39 20 59 25
c10 3 20 4 29 4v0zM421 436v0c7 0 11 -1 14 -4s5 -8 5 -15s-1 -17 -3 -27c-5 -20 -15 -43 -25 -61l-1 -3l1 -3c18 -31 23 -61 23 -100c0 -115 -94 -209 -209 -209s-209 94 -209 209c0 38 9 73 27 104l2 3l-2 3c-10 18 -21 40 -27 59c-3 10 -5 19 -5 26s0 11 3 14
c2 2 7 4 13 4c21 0 59 -17 86 -33l3 -1l3 1c31 18 67 29 106 29s74 -6 105 -24l2 -2l3 1c18 10 40 21 59 26c10 3 19 3 26 3v0z" />
    <glyph glyph-name="uniF168" unicode="&#xf168;" horiz-adv-x="439" 
d="M0 448zM0 55v274c0 23 8 42 24 58s35 25 58 25h274c23 0 43 -9 59 -25s24 -36 24 -58v-274c0 -23 -8 -42 -24 -58s-36 -25 -59 -25h-274c-23 0 -42 9 -58 25s-24 36 -24 58zM73 72c0 -9 2 -17 6 -23s9 -11 15 -15s14 -6 21 -7s14 -2 23 -2c43 0 64 18 64 53
c0 13 -5 23 -14 29s-21 11 -36 13c-5 1 -10 3 -14 6s-7 7 -7 11c0 8 4 13 13 15c15 3 26 9 35 20s14 23 14 38c0 4 -2 10 -4 15c7 2 12 3 14 4v36c-15 -5 -27 -8 -38 -8c-10 5 -20 8 -31 8c-16 0 -31 -6 -42 -17s-17 -25 -17 -41c0 -10 3 -19 8 -29s12 -16 21 -19v-1
c-7 -3 -10 -11 -10 -24c0 -10 3 -18 11 -22v-1c-22 -7 -32 -20 -32 -39zM109 73c0 12 9 19 28 19s29 -6 29 -18c0 -13 -8 -19 -26 -19c-20 0 -31 6 -31 18zM113 207c0 17 7 26 22 26c7 0 13 -2 16 -7s5 -11 5 -19c0 -16 -7 -24 -21 -24c-15 0 -22 8 -22 24zM216 315
c0 -7 2 -13 7 -18s10 -7 17 -7s13 2 17 7s7 11 7 18s-2 14 -7 19s-11 8 -17 8s-12 -3 -17 -8s-7 -11 -7 -19zM220 109h40c0 5 -1 13 -1 24v110c0 9 1 16 1 20h-40c1 -4 1 -11 1 -20v-112c0 -10 0 -17 -1 -22zM276 229c7 1 11 1 11 1h3h3v-1h-1v-62c0 -7 0 -13 1 -18
s2 -11 3 -16s5 -10 8 -14s7 -7 12 -9s11 -3 19 -3c12 0 23 3 31 7v34c-5 -4 -12 -6 -20 -6c-10 0 -15 8 -15 24v64h15h8c3 0 6 -1 7 -1v34h-30c0 16 1 25 1 29h-40c1 -4 1 -10 1 -16v-13h-17v-34z" />
    <glyph glyph-name="uniF169" unicode="&#xf169;" 
d="M502 215l-223 223c-13 13 -34 13 -47 0l-46 -46l59 -59c14 5 29 2 40 -9s14 -27 9 -41l57 -57c14 5 30 2 41 -9c15 -15 15 -40 0 -55s-41 -15 -56 0c-12 12 -15 28 -9 42l-52 53v-139c4 -2 7 -5 10 -8c15 -15 15 -40 0 -55s-41 -15 -56 0s-15 40 0 55c4 4 8 7 13 9v141
c-5 2 -9 4 -13 8c-12 12 -14 29 -8 43l-58 58l-153 -153c-13 -13 -13 -34 0 -47l223 -223c13 -13 34 -13 47 0l222 222c13 13 13 34 0 47z" />
    <glyph glyph-name="uniF15B" unicode="&#xf15b;" 
d="M0 448zM256 448c141 0 256 -115 256 -256s-115 -256 -256 -256s-256 115 -256 256s115 256 256 256zM408 40v0c20 20 35 42 46 68s17 55 17 84s-6 58 -17 84s-26 48 -46 68s-42 35 -68 46s-55 17 -84 17s-58 -6 -84 -17s-48 -26 -68 -46s-35 -42 -46 -68s-17 -55 -17 -84
s6 -58 17 -84s26 -48 46 -68s42 -35 68 -46c7 -3 15 -6 23 -8v39c0 20 6 35 20 44c-9 1 -17 3 -24 4s-15 3 -23 6s-15 7 -21 11s-13 9 -19 15s-11 13 -15 21s-7 18 -9 29s-4 23 -4 36c0 26 8 48 25 66c-8 20 -6 41 3 65c0 0 1 1 2 1h8s9 -2 14 -3s11 -4 19 -8s16 -9 25 -15
c19 5 39 8 61 8c21 0 42 -2 62 -8c14 10 27 17 38 21s19 6 23 5h6c9 -23 11 -46 3 -66c17 -18 25 -40 25 -66c0 -13 -1 -25 -3 -36s-6 -21 -10 -29s-9 -15 -15 -21s-12 -11 -18 -15s-14 -8 -22 -11s-16 -5 -23 -6s-15 -2 -24 -3c14 -10 21 -25 21 -45v-38c7 2 13 4 20 7
c26 11 48 26 68 46z" />
    <glyph glyph-name="uniF15C" unicode="&#xf15c;" horiz-adv-x="439" 
d="M0 448zM0 192c0 40 9 76 29 110s46 60 80 80s70 29 110 29s77 -9 111 -29s59 -46 79 -80s30 -70 30 -110c0 -48 -14 -91 -42 -129s-64 -64 -108 -79c-5 -1 -9 0 -11 2s-4 5 -4 8v61c0 18 -5 31 -15 40c11 1 20 3 29 5s18 6 27 11s17 11 23 19s12 18 16 30s5 27 5 43
c0 23 -7 43 -22 59c7 17 7 37 -2 59c-5 2 -14 0 -24 -4s-19 -7 -26 -12l-11 -7c-18 5 -36 7 -55 7s-36 -2 -54 -7c-3 2 -8 5 -13 8s-12 7 -23 11s-19 6 -25 4c-8 -22 -9 -42 -2 -59c-15 -16 -23 -36 -23 -59c0 -16 2 -30 6 -42s9 -22 15 -30s14 -15 23 -20s18 -9 27 -11
s18 -4 29 -5c-8 -7 -12 -16 -14 -29c-4 -2 -7 -4 -12 -5s-11 -1 -17 -1s-12 2 -18 6s-12 10 -16 18c-4 6 -8 11 -14 15s-10 6 -14 7l-6 1c-4 0 -6 -1 -8 -2s-3 -2 -2 -3s2 -3 3 -4s3 -2 4 -3l2 -2c4 -2 8 -6 12 -11s7 -10 9 -14l3 -7c2 -7 6 -13 12 -17s13 -8 20 -9
s13 -2 19 -2s12 0 16 1l7 1v-25v-16c0 -3 -2 -6 -4 -8s-6 -3 -11 -2c-44 15 -80 41 -108 79s-42 81 -42 129v0z" />
    <glyph glyph-name="uniF15D" unicode="&#xf15d;" 
d="M0 448zM256 32c-10 0 -19 5 -29 15c-4 4 -4 10 0 14s10 4 14 0c6 -6 11 -9 15 -9s9 3 15 9c4 4 10 4 14 0s4 -10 0 -14c-10 -10 -19 -15 -29 -15v0zM0 185v0c0 45 14 84 42 116c-2 4 -4 9 -5 15s-2 13 -3 23s-1 22 1 35s6 27 11 41c1 0 2 1 4 1s6 0 13 -1s13 -2 21 -5
s18 -7 31 -14s27 -15 41 -26c24 7 58 15 100 15s76 -8 100 -15c14 11 28 19 41 26s23 12 31 14s15 4 21 5s10 2 13 1l4 -1c5 -14 9 -28 11 -41s2 -25 1 -35s-2 -17 -3 -23s-3 -11 -5 -15c28 -32 42 -71 42 -116c0 -25 -3 -48 -7 -68s-10 -37 -18 -52s-17 -29 -29 -40
s-25 -20 -39 -27s-30 -14 -48 -18s-35 -7 -54 -9s-40 -3 -62 -3s-43 1 -61 3s-36 5 -54 9s-34 11 -48 18s-26 16 -38 27s-22 25 -30 40s-14 32 -18 52s-6 43 -6 68zM68 128v0c0 -17 2 -32 6 -45s8 -25 13 -34s13 -16 23 -22s19 -12 28 -15s22 -6 36 -8s28 -3 39 -3
s26 -1 43 -1s32 1 43 1s25 1 39 3s27 5 36 8s18 9 28 15s18 13 23 22s9 21 13 34s6 28 6 45c0 29 -11 55 -32 79c-6 7 -14 13 -23 17s-18 5 -29 6s-21 1 -31 0s-22 -2 -36 -3s-27 -2 -37 -2s-24 1 -38 2s-26 2 -36 3s-20 1 -31 0s-20 -2 -28 -6s-17 -10 -23 -17
c-21 -24 -32 -50 -32 -79zM128 144c0 27 14 48 32 48s32 -21 32 -48s-14 -48 -32 -48s-32 21 -32 48zM320 144c0 27 14 48 32 48s32 -21 32 -48s-14 -48 -32 -48s-32 21 -32 48z" />
    <glyph glyph-name="uniF141" unicode="&#xf141;" horiz-adv-x="322" 
d="M-8 448zM120 233c-62 7 -51 103 -1 129c33 17 77 17 107 5c57 -22 72 -51 80 -106s-18 -203 -84 -219c-59 -15 -82 14 -76 41c7 28 39 64 41 88c5 57 -67 62 -67 62v0zM10 369c-17 24 -12 56 10 71s54 8 71 -16s11 -56 -11 -71s-53 -8 -70 16zM138 384
c-14 2 -23 23 -21 37s16 22 30 20s23 -23 21 -37s-16 -22 -30 -20zM184 394c-8 11 -5 35 7 43s23 6 31 -5s6 -36 -6 -44s-24 -5 -32 6zM233 385v0c-2 12 8 30 21 33s26 -5 28 -17s-8 -30 -21 -33s-26 5 -28 17v0zM285 368c7 11 21 15 30 9s10 -20 3 -31s-21 -15 -30 -9
s-10 20 -3 31z" />
    <glyph glyph-name="uniF15E" unicode="&#xf15e;" horiz-adv-x="415" 
d="M-8 448zM207 448v0c5 0 10 -2 16 -9s34 -39 66 -74c2 11 8 19 16 19h32c9 0 17 -11 17 -24v-67c25 -28 56 -63 56 -63s3 -3 4 -7c1 -1 1 -2 1 -3v-27c0 -3 -2 -5 -5 -5h-26v-201h-354v201h-24c-3 0 -5 2 -5 5v24c-1 4 -1 8 3 13c8 9 187 209 187 209s7 9 16 9v0zM144 259
c-20 0 -32 -4 -39 -10s-10 -18 -10 -37v-31c0 -13 -2 -21 -6 -26s-12 -7 -23 -7h-8v-18h8c11 0 19 -3 23 -8s6 -13 6 -26v-31c0 -19 3 -31 10 -37s19 -9 39 -9h8v18h-8c-11 0 -19 1 -22 5s-5 12 -5 24v31c0 13 -1 23 -5 29s-10 11 -19 13c9 2 14 6 18 12s6 16 6 29v31
c0 12 2 20 5 24s11 6 22 6h8v18h-8v0zM264 259v-19h8c11 0 19 -1 22 -5s5 -12 5 -24v-31c0 -13 1 -23 5 -29s9 -10 18 -12c-9 -2 -14 -7 -18 -13s-5 -16 -5 -29v-31c0 -12 -2 -20 -5 -24s-11 -5 -22 -5h-8v-19h7c20 0 33 4 40 10s9 18 9 37v31c0 13 3 21 7 26s12 8 23 8h7
v18h-7c-11 0 -19 2 -23 7s-7 13 -7 26v31c0 19 -2 31 -9 37s-20 10 -40 10h-7v0zM155 213v0v-152h36v53h24c18 0 31 3 41 12s15 21 15 37s-5 28 -15 37s-23 13 -41 13h-60v0zM191 184h20c7 0 13 -1 17 -5s5 -9 5 -16s-1 -12 -5 -16s-10 -5 -17 -5h-20v42z" />
    <glyph glyph-name="uniF120" unicode="&#xf120;" 
d="M-8 448zM252 447v0h8c11 0 22 0 33 -2c56 -8 104 -33 145 -74c17 -17 30 -34 41 -53c8 -14 21 -43 23 -52c1 -3 1 -7 2 -10c3 -10 6 -33 7 -48c2 -32 -2 -69 -11 -97c-5 -15 -15 -39 -22 -49c-2 -3 -6 -10 -10 -15c-8 -12 -19 -25 -31 -37c-42 -41 -90 -65 -146 -72
c-15 -2 -46 -2 -61 -1c-70 7 -129 39 -176 97c-8 10 -12 17 -17 25l-8 12s-5 9 -6 12s-3 7 -4 9c-2 5 -7 20 -9 29c-6 21 -10 50 -10 68c0 16 2 34 4 47s3 15 7 30c5 18 8 24 15 39c8 17 18 32 31 47c7 9 30 31 38 38c34 27 68 44 108 52c15 3 32 5 49 5v0zM140 301v0h-38
c-1 -1 0 -3 1 -12c2 -15 5 -25 12 -39c8 -16 18 -29 33 -42c8 -7 13 -11 21 -16s21 -12 31 -15c3 -1 4 -1 9 -5c8 -6 17 -21 19 -32s2 -29 -1 -41c-6 -21 -7 -25 -17 -44c-4 -8 -7 -15 -7 -16c0 -2 2 -5 5 -7c5 -3 19 -8 30 -9h7c4 -1 15 -1 22 0c18 2 33 7 37 13
c2 3 2 4 -1 9c-1 2 -2 5 -3 6s-3 4 -4 7c-8 16 -15 40 -17 51c0 2 -1 8 -1 14c0 9 1 13 2 17c1 5 4 14 6 16c1 1 3 3 4 5c4 6 14 15 17 16c7 2 19 8 28 13c20 12 40 31 51 49c6 10 8 14 9 18c1 2 3 6 4 9c3 9 6 26 6 32v3h-151h-114v0zM50 238v0v-4c1 -11 4 -20 9 -30
c6 -11 10 -15 22 -25c9 -8 19 -14 27 -16c10 -3 11 -5 16 -13c3 -6 4 -9 4 -18c0 -13 -3 -25 -11 -41c-3 -6 -5 -11 -5 -12c0 -2 3 -4 6 -5c4 -2 10 -4 20 -5c4 0 8 0 14 1c7 1 13 2 17 4c3 1 6 5 6 6s-3 5 -6 11c-6 11 -7 16 -9 25c-2 10 -3 15 -2 21s3 14 6 18
c3 5 4 6 11 8c5 2 14 5 14 6c0 0 -2 2 -6 3c-11 4 -24 11 -36 20c-8 6 -21 20 -26 26c-2 3 -5 7 -7 10s-4 7 -5 8l-1 2h-58v0zM400 238l-2 -4c-6 -10 -12 -18 -24 -30s-17 -15 -32 -24c-7 -4 -11 -6 -17 -8c-3 -1 -5 -2 -5 -2c0 -1 7 -5 11 -6c7 -2 11 -4 13 -6
c3 -2 7 -12 8 -17c1 -3 1 -6 1 -11c-1 -13 -4 -24 -12 -39c-3 -6 -5 -11 -5 -11c0 -1 3 -4 6 -6c9 -4 25 -5 39 -3c6 1 10 2 13 4s5 3 5 5c0 1 -2 5 -5 10c-11 22 -15 45 -9 57c2 4 7 12 8 13c1 0 4 2 7 3c13 4 26 12 39 25c5 5 7 9 13 19c3 5 5 7 6 13c3 11 3 14 3 16v2
h-61v0z" />
    <glyph glyph-name="uniF121" unicode="&#xf121;" 
d="M-8 448zM271 3c-8 -1 -23 -1 -28 0c-1 0 -4 1 -8 1c-14 2 -32 7 -38 11c-4 3 -6 7 -6 9c0 1 4 9 9 19c12 24 14 29 21 55c4 15 5 38 2 52s-14 31 -25 39c-6 5 -7 6 -11 7c-12 4 -27 11 -38 18c-10 6 -17 11 -27 20c-18 16 -30 32 -40 52c-9 17 -13 30 -15 48
c-2 12 -2 14 -1 15c1 0 62 1 189 1h188v-4c0 -8 -4 -29 -8 -40c-1 -3 -3 -8 -4 -11c-2 -5 -5 -11 -12 -23c-14 -22 -39 -46 -63 -60c-11 -7 -28 -15 -36 -17c-4 -1 -16 -12 -21 -20c-1 -2 -3 -4 -4 -5c-2 -3 -8 -14 -9 -21c-1 -5 -1 -9 -1 -21v-18c2 -14 12 -44 22 -63
c2 -3 3 -6 4 -8s3 -5 5 -8c3 -6 3 -8 1 -11c-5 -7 -23 -15 -46 -17v0zM128 62c-8 -1 -13 -2 -18 -1c-13 2 -20 3 -25 5c-4 2 -8 6 -8 8c0 1 3 8 7 15c10 20 14 34 14 50c0 11 -1 16 -5 23c-6 11 -8 12 -20 16c-10 3 -23 10 -34 20c-15 13 -19 17 -27 31c-7 12 -11 24 -12 37
v5h72l2 -3c1 -2 3 -5 6 -9s6 -9 9 -13c6 -8 22 -25 32 -32c15 -11 32 -20 45 -25c5 -2 8 -3 8 -3c0 -1 -10 -7 -17 -9c-8 -2 -10 -4 -14 -10c-3 -5 -7 -15 -8 -22s-1 -13 2 -25s5 -18 12 -32c4 -7 7 -13 7 -14c0 -2 -5 -5 -8 -7c-5 -2 -11 -4 -20 -5zM413 63
c-17 -3 -38 -2 -49 4c-4 2 -7 5 -7 7c0 1 2 8 6 15c10 19 14 32 15 48c0 6 0 10 -1 14c-1 6 -7 17 -10 20c-2 2 -8 5 -17 8c-4 1 -13 6 -13 7c0 0 3 2 6 3c8 3 12 5 21 10c19 11 26 15 41 30s22 25 29 38l3 4h75v-2c0 -3 -1 -7 -4 -20c-2 -7 -3 -10 -7 -17
c-7 -12 -9 -16 -16 -23c-16 -17 -31 -27 -48 -32c-4 -1 -8 -3 -9 -3c-2 -1 -8 -11 -10 -16c-7 -15 -3 -44 11 -71c3 -6 6 -12 6 -13c0 -2 -2 -4 -6 -6s-8 -4 -16 -5v0z" />
    <glyph glyph-name="uniF165" unicode="&#xf165;" horiz-adv-x="380" 
d="M150 217c0 0 -7 -18 -11 -29s-22 -16 -22 -16s9 10 9 32c0 10 13 14 13 14l11 -1v0zM134 258v0v0c4 -5 8 -12 12 -16c6 -6 13 -9 19 -9c-5 -6 -37 -4 -59 25c-12 15 -54 17 -54 17s12 10 38 8c15 -1 32 -9 44 -25zM125 371v0v0c-10 -13 -6 -25 -6 -25s17 -26 22 -42
c-16 12 -42 31 -42 31l-10 5l1 2l-11 6s27 13 46 23zM42 394v0v0s-10 1 -3 2zM128 229v0l14 -6s-14 -13 -37 -9c-30 6 -20 38 -20 38s1 -19 18 -24c13 -4 25 1 25 1zM137 386c-1 27 19 48 28 49c0 -4 1 -23 8 -28c1 14 8 30 38 41c-6 -17 -1 -31 2 -37c20 18 33 15 33 15
s-13 -25 -8 -40c-41 3 -101 -4 -101 0v0v0zM51 346c-10 7 -2 14 -3 24c0 5 -1 10 -2 12c-9 14 -30 18 -30 18l-10 2l7 8c1 1 27 26 68 12c29 -10 50 -40 51 -41l-15 -7s-16 31 -41 38c-20 6 -39 0 -46 -3c9 -3 19 -10 25 -21c3 -5 4 -11 5 -17c1 -9 1 -16 7 -20l-16 -5v0z
M26 229v0v0c2 4 6 44 6 44s5 22 4 43c4 -9 7 -31 6 -43c-4 -29 -16 -44 -16 -44zM90 361c0 0 -4 16 -15 25c-15 12 -34 5 -34 5l-3 9c1 0 23 8 42 -6s22 -27 22 -28l-12 -5v0zM64 240c0 0 -6 9 -5 19c1 5 3 10 7 12c7 3 11 -5 11 -5s-11 -3 -13 -26v0v0zM133 226v0l11 1
c-17 -34 -56 -14 -63 -5c-18 19 -12 49 -12 50l17 -6l9 -3s8 -5 15 -11c-6 4 -14 7 -23 9c-3 -9 -4 -27 7 -36c20 -15 39 0 39 1c1 -1 0 0 0 0zM131 224v0v0c-12 18 -50 45 -80 51c43 10 73 -21 83 -32c16 -19 36 -8 36 -8c1 -18 -28 -28 -39 -11zM48 176v0v0
c-2 2 -5 3 -7 4c-18 10 -41 22 -41 44c0 16 9 24 15 28c1 1 1 2 2 2c2 1 3 3 4 4c5 10 4 34 2 37c-1 1 -16 22 -11 40c2 7 7 13 14 17c5 2 12 4 21 4c15 0 30 -4 37 -6c39 -14 62 -50 62 -50l3 -7l-5 5v0c-9 6 -39 30 -64 37c-7 3 -21 6 -33 6c-6 0 -11 -1 -15 -3
c-3 -1 -5 -4 -6 -7c-2 -10 6 -23 9 -27c6 -9 5 -39 0 -52c-2 -4 -6 -7 -9 -10v0c-4 -3 -9 -7 -9 -18c0 -15 15 -22 30 -31c3 -1 5 -3 8 -4c9 -5 19 -17 20 -34c0 -15 -2 -53 -5 -79c-5 3 -10 4 -15 7c3 23 5 60 5 67c0 14 -9 25 -12 26zM51 346c-10 7 -2 14 -3 24
c0 5 -1 10 -2 12c-9 14 -30 18 -30 18l-10 2l7 8c1 1 27 26 68 12c29 -10 50 -40 51 -41l-15 -7s-16 31 -41 38c-20 6 -39 0 -46 -3c9 -3 19 -10 25 -21c3 -5 4 -11 5 -17c1 -9 1 -16 7 -20l-16 -5v0zM51 345v0c-7 6 -6 12 -5 18c1 2 1 5 1 8c0 4 -1 9 -2 12
c-9 12 -29 16 -29 16l-13 2l9 10s17 17 46 17c7 0 15 -2 24 -5c30 -10 51 -42 51 -42l1 -1l-17 -9l-1 2c-2 3 -18 31 -40 38c-5 2 -12 3 -18 3c-11 0 -21 -3 -25 -5c7 -3 18 -10 24 -20c3 -5 4 -12 4 -18c1 -7 1 -15 6 -19l2 -2l-18 -5v0zM90 361c0 0 -4 16 -15 25
c-15 12 -34 5 -34 5l-3 9c1 0 23 8 42 -6s22 -27 22 -28l-12 -5v0zM89 358v3s-4 15 -14 24c-5 4 -13 8 -22 8c-6 0 -10 -2 -11 -3h-1l-4 11h1c1 0 7 2 14 2c11 0 20 -3 29 -8c20 -14 22 -27 22 -29v-1l-14 -7v0zM53 395c9 0 17 -3 23 -8c10 -7 14 -20 15 -24l9 4
c-1 3 -5 14 -21 26c-7 5 -17 8 -27 8c-5 0 -9 -1 -11 -1l2 -5h10v0v0zM143 -2v0c-4 0 -9 1 -12 4c-2 2 -11 9 -14 18c-1 3 -1 7 1 8c1 1 5 3 10 3h4h19h6c4 0 7 -1 8 -2c2 -2 1 -6 1 -7c-1 -2 -5 -12 -12 -19c-2 -4 -7 -5 -11 -5v0v0zM147 223v0v0c9 -17 -12 -41 -12 -41
s6 15 3 26c-2 9 -7 16 -7 16zM128 -44c-55 4 -75 56 -75 67l10 -4v0l7 -4c0 -4 12 -41 59 -45l-1 -14v0zM112 58v0v0c-28 0 -71 7 -83 45c-5 -5 -9 -39 3 -59c13 -22 40 -32 65 -30c-2 -5 3 -16 3 -16c-43 3 -79 18 -88 63c-9 48 20 70 20 70c3 -25 22 -46 38 -51
c14 -6 31 -7 45 -7v-2c-2 -5 -3 -9 -3 -13zM116 85v0v0c0 2 20 51 27 62c-7 -51 -26 -95 -27 -98c-2 -4 -23 -5 -23 -5s16 19 23 41zM228 217v0l12 1s13 -4 13 -14c0 -22 8 -32 8 -32s-17 5 -21 16s-12 29 -12 29zM243 258c12 16 30 24 45 25c26 2 37 -8 37 -8
s-41 -2 -53 -17c-22 -29 -55 -31 -60 -25c6 0 13 3 19 9c4 4 9 11 12 16v0v0zM253 371c19 -10 46 -23 46 -23l-11 -6l1 -2l-11 -5s-25 -19 -41 -31c5 16 21 42 21 42s5 12 -5 25v0v0zM336 394l2 2c7 -1 -2 -2 -2 -2v0v0zM250 229c0 0 11 -5 24 -1c17 5 18 24 18 24
s11 -32 -19 -38c-23 -4 -37 9 -37 9l14 6v0zM326 346v0l-16 5c6 4 8 11 8 20c1 6 1 12 4 17c6 11 17 18 26 21c-7 3 -26 9 -46 3c-25 -7 -42 -38 -42 -38l-15 7c1 1 23 31 52 41c41 14 67 -11 68 -12l6 -8l-9 -2s-21 -4 -30 -18c-1 -2 -2 -7 -2 -12c-1 -10 6 -17 -4 -24z
M352 229c0 0 -12 15 -16 44c-1 12 1 34 5 43c-1 -21 5 -43 5 -43s4 -40 6 -44v0v0zM288 361v0l-12 5c0 1 4 14 23 28s40 6 41 6l-3 -9s-19 7 -34 -5c-11 -9 -15 -25 -15 -25zM314 240v0v0c-1 23 -13 26 -13 26s3 8 10 5c4 -2 7 -7 8 -12c1 -10 -5 -19 -5 -19zM244 226v0
c0 -1 20 -16 40 -1c11 9 9 27 6 36c-9 -2 -16 -5 -22 -9c7 6 15 11 15 11l8 3l17 6c0 -1 7 -31 -11 -50c-7 -9 -46 -29 -63 5l10 -1v0zM246 224c-11 -17 -39 -7 -38 11c0 0 19 -11 35 8c10 11 40 42 83 32c-30 -6 -68 -33 -80 -51v0v0zM330 176c-3 -1 -12 -12 -12 -26
c0 -7 1 -44 4 -67c-5 -3 -10 -4 -15 -7c-3 26 -4 64 -4 79c1 17 10 29 19 34c3 1 6 3 9 4c15 9 30 16 30 31c0 11 -5 15 -9 18v0c-3 2 -7 6 -9 10c-5 13 -6 43 0 52c3 4 12 17 10 27c-1 3 -3 6 -6 7c-4 2 -9 3 -15 3c-12 0 -26 -3 -33 -6c-25 -7 -55 -31 -64 -37v0l-6 -5
l4 6s22 36 61 50c7 2 23 6 38 6c9 0 16 -1 22 -4c7 -3 12 -10 14 -17c5 -18 -11 -39 -12 -40c-2 -3 -3 -27 2 -37c1 -1 3 -3 5 -4c1 0 1 -1 2 -2c6 -4 15 -12 15 -28c0 -22 -23 -34 -41 -44c-4 0 -7 -1 -9 -3v0v0zM303 349v0l3 -2l-18 -5l-1 1v2c0 1 -2 7 -22 17
c-21 11 -46 16 -74 16s-53 -5 -74 -16c-19 -10 -22 -16 -22 -17v-2l-1 -1l-18 5l1 2c3 6 12 17 33 28c23 12 50 17 80 17v0v0v0v0c30 0 57 -5 80 -17c20 -10 30 -22 33 -28zM326 346v0l-16 5c6 4 8 11 8 20c1 6 1 12 4 17c6 11 17 18 26 21c-7 3 -26 9 -46 3
c-25 -7 -42 -38 -42 -38l-15 7c1 1 23 31 52 41c41 14 67 -11 68 -12l6 -8l-9 -2s-21 -4 -30 -18c-1 -2 -2 -7 -2 -12c-1 -10 6 -17 -4 -24zM308 350l2 2c5 4 7 12 7 19c0 6 1 13 4 18c6 10 17 17 24 20c-4 2 -14 5 -25 5c-6 0 -12 -1 -18 -3c-22 -7 -39 -35 -41 -38l-1 -1
l-17 9l1 1s21 33 51 43c9 2 16 4 25 4c29 0 46 -17 46 -17l8 -10l-11 -2s-20 -4 -29 -17c-1 -2 -2 -7 -2 -12c0 -3 0 -5 1 -8c1 -5 2 -12 -4 -17h-2l-19 4v0zM288 361v0l-12 5c0 1 4 14 23 28s40 6 41 6l-3 -9s-19 7 -34 -5c-11 -9 -15 -25 -15 -25zM274 365v1
c0 1 4 15 23 29c9 5 17 8 28 8c7 0 14 -2 14 -2h1l-3 -11h-1s-6 3 -12 3c-9 0 -15 -3 -21 -8c-11 -9 -14 -24 -14 -24v-3l-15 7v0zM336 394l2 5c-2 1 -7 1 -12 1c-10 0 -19 -4 -26 -9c-16 -12 -21 -22 -22 -25l9 -3c1 4 5 17 15 24c6 5 13 8 23 8c4 0 9 0 11 -1v0v0zM224 2
c-7 9 -12 17 -13 19c-1 1 -1 5 1 7s5 2 9 2h6h19h5c5 0 8 -1 9 -3c2 -2 2 -5 1 -8c-3 -9 -12 -16 -14 -18c-3 -2 -7 -4 -11 -4v0c-5 1 -9 2 -12 5v0v0zM230 223l16 1s-4 -7 -6 -16c-3 -11 2 -26 2 -26s-21 24 -12 41v0v0zM189 278v0v0c10 0 22 1 32 8c0 0 -12 -23 -32 -23v4
v-4c-19 0 -32 23 -32 23c10 -7 22 -8 32 -8zM217 278v0v0s-15 -17 -29 -18v0v0v0v0c-12 0 -27 18 -27 18c11 -6 19 -8 28 -8s18 2 28 8zM250 -44l-1 14c47 3 59 42 59 47l16 6c0 -11 -19 -63 -74 -67v0v0zM267 58c0 4 -2 8 -4 13v2c14 0 31 1 45 7c16 6 36 27 39 52
c0 0 29 -22 20 -70c-9 -45 -46 -60 -89 -63c0 0 6 11 4 16c25 -2 52 8 65 30c12 20 8 54 3 58c-13 -38 -56 -45 -83 -45v0v0zM284 47v0v0c7 -9 8 -19 3 -33c-14 -37 -33 -76 -98 -76v0v0v0v0c-65 0 -84 39 -98 76c-5 14 -4 24 3 33c5 5 15 12 36 12h59v0v0v0h58
c21 0 32 -7 37 -12zM273 16v0v0c4 11 4 18 1 23c-3 3 -9 8 -24 8h-16h-44h-44h-16c-15 0 -21 -5 -24 -8c-4 -5 -4 -12 -1 -23c6 -19 23 -65 84 -65c60 1 78 46 84 65zM261 85c7 -22 24 -41 24 -41s-22 1 -24 5c-1 3 -19 47 -26 98c7 -11 26 -60 26 -62v0v0z" />
    <glyph glyph-name="uniF166" unicode="&#xf166;" horiz-adv-x="230" 
d="M114 45c30 0 53 4 64 7c8 2 14 4 19 6l-14 -25l-5 -80c0 -9 -28 -16 -63 -16s-63 7 -63 16l-5 79l-15 26c5 -2 10 -4 18 -6c11 -3 34 -7 64 -7zM197 302c11 2 20 3 26 5c1 0 4 2 6 3l-15 -136c-3 -3 -6 -5 -8 -7c-3 -3 -6 -5 -8 -7s-4 -3 -5 -4s-2 -1 -3 -1h-2v2
c0 0 0 1 1 2s3 2 4 4s2 3 4 5s4 4 5 6s2 5 3 7s1 3 1 5c0 1 0 3 -1 4l-2 2s-2 2 -3 2s-3 1 -4 1c-2 0 -3 -1 -5 -2s-3 -1 -5 -2s-3 -3 -5 -4s-4 -4 -5 -5c0 0 1 0 1 1v2v2v1c0 1 0 2 -1 3s-2 1 -3 1s-2 0 -3 -1s-1 -3 -2 -4s-1 -3 -2 -4s-1 -3 -1 -4c-1 -2 0 -3 -1 -5l-1 -1
c-1 -1 -3 -2 -4 -3l-4 -4l-4 -4s-4 -2 -5 -3s-2 -1 -3 -2s-2 -1 -3 -1s-2 1 -2 1v2s1 2 1 3s1 3 1 4c1 2 2 5 3 8s3 6 4 10s3 7 5 11s3 7 4 11s3 7 4 10s3 6 4 8c0 1 1 2 1 3v2c0 2 0 3 -1 4s-2 1 -3 1s-3 0 -4 -1s-1 -2 -2 -4l-17 -42c-1 -3 -3 -7 -4 -10s-3 -7 -4 -10
c-1 -2 -1 -4 -2 -6l-1 -1c-2 -1 -3 -2 -5 -3s-4 -1 -5 -1c-2 0 -2 0 -2 2s0 3 1 5s1 5 2 7s1 4 2 6s1 3 2 5s1 4 2 5s1 2 1 3s0 3 -1 4s-2 2 -3 2s-2 -1 -3 -2s-1 -2 -2 -3s-1 -3 -2 -5s-1 -4 -2 -5c-1 -2 -2 -4 -4 -7s-3 -6 -5 -8l-6 -6s-5 -2 -7 -2c-1 0 -2 0 -2 1v2
c0 2 0 4 1 6s1 4 2 6s1 3 2 5s2 3 3 5s1 3 2 4s1 2 1 3v2v1s-1 2 -1 2h-2s0 1 -1 1s-3 -1 -4 -2s-1 -1 -2 -3c-3 -6 -5 -12 -7 -16s-3 -8 -4 -11s-2 -5 -2 -6v-2c0 -2 0 -4 1 -5s1 -2 2 -3s2 -2 3 -2h4c3 0 5 0 7 1s4 3 6 4s4 3 5 5s3 3 4 5c-1 -3 -1 -5 -1 -7
c0 -3 1 -5 2 -6s2 -2 4 -2s4 0 6 1s5 2 7 4c1 0 1 1 2 2v-1c0 -1 0 -2 1 -3s2 -2 3 -2s1 -1 3 -1s5 1 7 2s5 2 7 4s6 4 8 6v0c0 -1 -1 -1 -1 -2c-2 -4 -4 -9 -6 -13s-4 -10 -6 -14c0 -1 -1 -1 -1 -2s-1 -2 -1 -3s-1 -1 -1 -2v-3c0 -2 0 -3 1 -4s2 -1 3 -1s2 1 3 1s1 1 2 2
l2 2c0 1 1 3 1 4c0 0 1 1 1 2s0 3 1 4s1 2 2 4s1 4 2 5s1 3 1 4s1 2 1 2s1 1 1 2s1 1 1 2s1 3 2 4s1 2 1 3s2 2 2 3s1 2 1 2c1 2 1 3 2 5s3 4 4 6s3 3 4 5s2 3 4 4s3 2 5 3s4 2 5 2s1 -1 1 -1s1 0 1 -1s0 -3 -1 -4s-3 -2 -4 -4s-2 -4 -4 -6s-4 -3 -5 -5l-3 -6s-2 -3 -2 -4
v-1v0c0 -2 0 -4 2 -5s4 -2 7 -2s5 1 8 2s5 2 8 4s6 5 9 8c1 1 2 1 3 2l-11 -94c-2 -5 -39 -17 -88 -17s-86 12 -88 17l-7 79h1c2 -1 3 -2 6 -2c2 0 5 1 7 2s6 2 8 4s5 4 7 6l6 6c-1 -2 -1 -4 -2 -7s-1 -5 -2 -7s-1 -5 -2 -7s-1 -3 -1 -4v-1v-1c0 -2 0 -3 1 -4s1 -1 2 -1
s1 0 2 1s1 0 2 1s2 2 2 3v2c0 0 1 1 1 2s1 3 1 5s1 4 2 6s1 4 2 6s1 5 2 7s1 4 2 6s1 3 1 4s1 2 1 2c1 2 1 4 2 6s1 3 2 5s1 4 1 6s1 3 1 5v3s-1 1 -1 1s-1 1 -2 1h-1s-2 0 -3 -1s-2 -2 -3 -4l-5 -15c-1 -1 -2 -3 -3 -5s-2 -3 -4 -5l-6 -6s-3 -4 -5 -5s-4 -3 -6 -4
s-3 -1 -4 -1s-2 0 -3 1s-2 2 -2 3s-1 2 -1 3v4c0 4 0 7 1 12s3 10 5 15s4 8 7 13s6 9 9 13s5 6 8 8s6 3 9 3c2 0 3 0 4 -1s3 -3 4 -5s3 -4 4 -5s2 -2 3 -2s2 1 3 2s2 2 2 4v3s-1 2 -2 3c-3 4 -6 7 -9 9s-6 3 -9 3s-6 -1 -9 -2s-6 -4 -9 -6s-6 -5 -9 -8s-5 -6 -7 -10
s-5 -8 -7 -12s-4 -9 -6 -13c-1 -2 -1 -4 -2 -6l-14 125c2 -1 6 -3 7 -3c6 -2 14 -3 25 -5c22 -3 51 -5 82 -5s60 2 82 5zM115 334c64 0 115 -7 115 -16s-51 -16 -115 -16s-115 7 -115 16s51 16 115 16zM161 314c0 2 -6 3 -14 3s-13 -1 -13 -3s5 -4 13 -4s14 2 14 4zM136 315
l18 67l61 64v1c1 1 6 0 10 -4s6 -8 5 -9v0l-57 -61l-15 -58c0 -1 -5 -2 -11 -2s-11 1 -11 2v0z" />
    <glyph glyph-name="uniF117" unicode="&#xf117;" 
d="M-8 448zM259 423v0h1c2 0 3 -1 3 -3c0 -1 -1 -3 -2 -3c-21 -10 -28 -17 -38 -37c-1 -1 -2 -1 -3 -1c-2 0 -3 1 -3 3v1c2 6 3 11 5 15v0c-2 0 -3 1 -3 3v1c2 6 4 10 7 13s8 5 14 6v0c2 0 3 -1 3 -3c4 2 9 4 15 5h1v0zM328 419v0c18 -1 34 -8 52 -23c12 -10 22 -20 34 -28
c6 -4 12 -7 17 -13s9 -13 13 -21c4 1 7 3 10 5c4 4 8 11 14 17c2 2 5 3 8 3s6 -1 9 -2c6 -2 11 -6 13 -10c12 -23 15 -62 13 -86c-3 -30 -15 -59 -42 -73c-18 -9 -40 -10 -60 -7c-1 -3 -2 -8 -3 -11c-4 -15 -21 -25 -36 -26c-7 0 -12 2 -17 5s-9 6 -13 10c-3 3 -6 5 -9 8v-1
c3 -7 5 -13 8 -19c3 -8 5 -13 5 -22c0 -7 1 -15 1 -22c3 -5 3 -8 3 -14c-1 -8 -3 -13 -8 -16s-10 -3 -17 -3c-4 0 -20 1 -25 1c-4 0 -8 0 -11 1c-2 0 -3 1 -5 2c-3 -3 -7 -6 -11 -9c-2 -2 -4 -4 -6 -5c-1 -1 -2 -1 -3 -2c-2 -3 -3 -6 -5 -8c-2 -3 -4 -5 -8 -7
c-11 -6 -21 -6 -29 -1s-14 13 -20 23c-3 5 -9 12 -11 20c-1 4 -2 8 -1 12s4 8 8 10c1 0 1 1 2 1c-8 0 -17 0 -26 1v-2c0 -4 1 -6 1 -9s-2 -7 -4 -10c-3 -5 -4 -6 -8 -14c1 -6 0 -11 -2 -18c-1 -5 -5 -8 -9 -10s-10 -1 -15 -1c-10 1 -21 3 -27 5c-7 2 -16 4 -23 8
c-3 2 -7 5 -8 9s0 10 2 15c1 2 1 4 2 7c-6 -1 -12 1 -18 4c-8 4 -14 8 -19 13c-9 9 -13 19 -15 29c-1 4 0 7 1 10s3 4 6 7l15 15c2 5 3 10 5 15c-1 4 -1 8 -1 12c-1 15 -2 26 0 37c-4 -1 -7 -1 -10 0c-5 1 -10 5 -13 11c-2 4 -3 8 -4 13v0c-5 5 -7 11 -6 17s5 11 9 16
s10 9 15 12s9 5 13 6h1c2 0 3 -1 3 -3v-1c-1 -3 -2 -5 -3 -8c3 -3 5 -7 5 -11c1 -5 0 -9 -1 -13c0 -1 -2 -2 -3 -2s-2 0 -3 1c-1 2 -2 3 -3 4c0 -2 1 -5 0 -7c-1 -3 -2 -6 -5 -9v0h2c7 3 12 9 18 15c6 12 14 23 25 33c27 24 52 32 92 38c5 5 11 11 17 16c8 7 15 8 22 9
c12 16 22 29 43 38c22 9 41 14 59 13v0zM327 405v0c-16 1 -33 -5 -54 -14c-14 -6 -20 -12 -28 -22c8 0 16 0 25 1v0c2 0 4 -1 4 -3c0 -1 -2 -3 -3 -3c-12 -3 -23 -5 -34 -7c-6 -1 -11 -1 -14 -2s-5 -4 -10 -8c-17 -17 -32 -36 -48 -53c-9 -10 -14 -19 -19 -30
c-3 -5 -3 -9 -3 -12s2 -5 6 -10c6 -8 9 -14 12 -20c8 11 17 21 26 32c1 1 1 1 2 1c2 0 3 -1 3 -3v-2c-8 -14 -16 -26 -23 -40c-4 -8 -6 -11 -6 -19c7 -8 13 -13 19 -15c8 -2 14 -1 21 2c18 9 34 21 55 23c9 17 7 39 3 60c-3 18 -2 35 2 53c0 2 1 3 3 3s3 -1 3 -3v-1
c1 -17 3 -32 6 -49c5 -25 6 -48 -5 -74c0 -1 -2 -2 -3 -2c-21 -1 -39 -14 -59 -24c-10 -5 -19 -6 -30 -3s-19 11 -30 23c0 1 -1 1 -1 2v1c1 8 2 14 5 20c-4 10 -8 15 -16 26c-5 7 -9 12 -9 18s2 12 6 20c5 11 10 22 19 32c6 7 13 14 19 21c-27 -5 -46 -13 -66 -30
c-16 -14 -26 -31 -33 -52c-5 -13 -6 -26 -4 -47c3 -27 17 -57 33 -80c0 0 1 -1 1 -2v-1c-2 -14 -5 -25 -9 -35c-1 -2 -1 -4 0 -5s3 -2 5 -3c4 -2 10 -4 15 -5c4 -1 11 -3 19 -4h10s3 1 3 2c1 5 1 8 1 14l1 2c5 10 6 11 9 16c3 6 4 7 4 14v31v1c0 2 1 3 3 3s4 -1 4 -3
c1 -5 2 -11 3 -17c17 -3 35 -2 52 1v2c1 5 4 9 5 13c0 1 2 3 3 3c2 0 4 -2 4 -4v0c0 -4 -1 -9 -1 -13s-1 -8 0 -12c0 -2 1 -5 1 -7v-1c0 -2 -2 -3 -4 -3c-1 0 -1 0 -2 1s-2 4 -3 5c-7 -4 -12 -8 -19 -12c-1 -1 -2 -1 -2 -3s0 -4 1 -6c2 -5 5 -10 7 -13c4 -6 8 -13 13 -17
s9 -5 15 -2c3 2 6 7 10 12l1 1c1 0 2 2 5 4s7 5 10 8s7 5 10 7s4 4 6 5c0 0 1 0 2 1s2 2 3 4c2 3 5 8 8 12s5 9 7 13s4 8 4 9c5 16 11 29 13 45c-11 5 -17 11 -25 20c-1 1 -1 1 -1 2c0 2 1 3 3 3c1 0 1 -1 2 -1c12 -9 21 -13 34 -17l2 -1c5 -4 9 -8 14 -12c4 -3 7 -7 11 -9
c-1 1 -2 1 -2 2c-2 3 -2 6 -2 9c0 7 2 13 3 18c2 6 1 12 0 18v1v1l-1 -1s-1 -1 -2 -3c-2 -4 -4 -7 -5 -11c0 -1 -1 -2 -2 -2c-2 0 -4 1 -4 3v0c1 4 1 8 2 11c1 4 1 7 3 9s5 3 9 4c3 0 8 1 11 2v0c2 0 3 -1 3 -3c0 -1 0 -2 -1 -3c-3 -1 -6 -3 -9 -4h1c5 -3 9 -6 14 -8
c27 -9 60 -19 86 -4c20 11 32 37 35 61c2 21 -2 56 -11 77c0 1 -1 2 -2 3c-4 -12 -12 -21 -25 -26c-4 -1 -7 -2 -10 -1c-2 0 -5 1 -7 2v-3c2 -10 2 -21 0 -31c-2 -8 -3 -21 -9 -28c-1 -1 -1 -1 -2 -1c-2 0 -3 1 -3 3v1c1 4 3 18 4 26c0 3 0 7 -1 12l-4 -2s-4 -3 -4 -4
c-4 -8 -5 -17 -10 -26c0 -1 -2 -2 -3 -2c-2 0 -3 1 -3 3v1c2 4 3 9 3 14s0 9 2 15l1 1c-3 -1 -4 -3 -6 -6c-2 -4 -5 -10 -9 -15c-1 -1 -1 -1 -2 -1c-2 0 -4 1 -4 3c0 1 1 2 1 2c4 7 5 13 7 18s7 10 16 12c2 1 4 0 6 0c-4 0 -8 1 -13 0v0c-2 0 -3 1 -3 3c0 1 0 3 1 3s1 1 2 1
c-1 2 -1 4 -1 7v0v0c-2 0 -4 0 -5 1c-1 0 -2 2 -2 3s2 3 3 3c3 0 8 2 11 4v0v0l1 1v0c3 1 5 1 8 1h3c-2 4 -5 8 -8 12c-4 5 -6 6 -12 10c-1 1 -3 2 -4 3c-4 1 -8 1 -12 0h-1c-2 0 -3 2 -3 4c0 1 1 3 2 3c1 1 2 1 3 1c-7 5 -13 10 -20 16c-16 14 -30 20 -46 21v0zM336 352v0
c2 0 4 -1 4 -3c0 -1 -2 -3 -3 -3c-17 -8 -21 -17 -23 -28c0 -1 -2 -3 -3 -3s-3 2 -3 3c-2 8 -1 15 3 21s12 10 24 13h1v0zM266 351h1c2 0 3 -1 3 -3c0 -1 -1 -3 -2 -3c-8 -3 -16 -6 -24 -8c-7 -9 -10 -13 -12 -25c0 -1 -2 -3 -3 -3s-3 2 -3 3c-1 6 -1 9 -1 13
c-3 -4 -5 -9 -8 -14c-4 -9 -8 -18 -10 -23c0 -1 -2 -2 -3 -2c-2 0 -3 1 -3 3v1c1 6 3 16 7 26s8 20 13 25c3 3 5 4 8 5s5 2 9 2c9 1 19 2 28 3v0v0zM478 345c-1 0 0 0 -1 -1c-5 -5 -9 -12 -16 -17c-2 -2 -5 -3 -7 -4c1 0 2 0 3 1c2 1 2 2 4 3c7 5 13 11 17 18zM366 324v0v0
c2 0 3 -1 3 -3c0 -1 0 -2 -1 -3l-6 -3c2 -2 5 -4 6 -7c0 -1 1 -2 1 -3c4 1 8 2 12 2h1c2 0 3 -1 3 -3s-1 -3 -3 -3c-14 -4 -30 -14 -41 -27c-1 -1 -1 -1 -2 -1c-2 0 -4 2 -4 4l1 1c1 3 2 5 4 7c-2 2 -5 3 -6 6c0 1 -1 2 -1 3c-3 -2 -6 -4 -9 -5h-1c-2 0 -3 1 -3 3
c0 1 0 1 1 2c3 2 7 7 10 11s6 9 10 11c4 3 8 4 12 5s8 1 11 3h2v0zM31 310c2 0 3 -1 3 -3c0 -1 0 -1 -1 -2c-16 -17 -19 -26 -21 -48c0 -1 -2 -2 -3 -2s-3 1 -3 2c-1 6 -1 11 -1 16h-1c-2 0 -4 1 -4 3c0 6 0 10 2 14s5 7 10 11c0 0 1 1 2 1s2 -1 3 -2c3 3 7 6 12 9
c0 0 1 1 2 1v0zM426 308h4v-1c-1 1 -3 1 -4 1v0zM45 285v0c-3 -3 -5 -5 -7 -8s-4 -6 -4 -9s1 -5 4 -8v0c4 3 6 7 6 11s0 9 1 14zM59 248c-1 -1 -2 -2 -3 -2c-3 -1 -5 -2 -7 -2s-4 1 -6 2c-1 0 -1 1 -1 2l1 -2c1 -3 3 -3 6 -3s6 1 9 2v0c0 1 1 2 1 3v0zM391 168
c-2 -2 -4 -3 -6 -4v-1c2 2 4 3 6 5zM63 159v0l-1 -2c-5 -5 -10 -9 -15 -14c-2 -2 -3 -4 -3 -4v-3c1 -6 5 -13 11 -19c3 -3 9 -8 15 -11c3 -2 7 -2 9 -2s4 0 5 2c1 1 1 4 2 6c-9 14 -17 30 -23 47v0zM326 145c-2 -6 -5 -12 -7 -19c-2 -5 -7 -15 -12 -24c-4 -7 -8 -12 -12 -17
c2 0 2 -1 5 -1h12h12c4 0 7 -1 8 0s2 2 2 7s0 5 -2 9l-1 1v24c0 7 -2 10 -5 17v2v1z" />
    <glyph glyph-name="uniF134" unicode="&#xf134;" 
d="M-8 448zM0 38l120 181l-120 181h90l121 -181l-121 -181h-90zM120 38l121 181l-121 181h91l241 -362h-91l-75 113l-75 -113h-91zM412 144l-41 60h141v-60h-100zM351 234l-40 60h201v-60h-161z" />
    <glyph glyph-name="uniF15F" unicode="&#xf15f;" horiz-adv-x="264" 
d="M-8 448zM1 39v127l64 -63zM216 367h-67c24 30 46 81 46 81h69s-11 -34 -48 -81v0zM180 38v224s14 54 -180 -22c0 -1 0 208 0 208h63v-133s178 70 178 -53v-224h-61z" />
    <glyph glyph-name="uniF16E" unicode="&#xf16e;" horiz-adv-x="353" 
d="M-74 448zM0 412h353l-33 -361l-144 -39l-144 40zM65 338l13 -134h153l-6 -57l-49 -13l-49 13l-3 37h-45l7 -71l90 -25l90 25l12 136h-161l-4 45h169l4 44h-221z" />
    <glyph glyph-name="uniF106" unicode="&#xf106;" 
d="M210 267c4 -14 7 -29 12 -44l19 -60h-62l19 60c4 14 7 30 11 44h1zM0 448h512v-512h-512v512zM270 62h47l-78 240h-56l-77 -240h45l21 68h76zM384 62v174h-44v-174h44zM362 261c15 0 25 10 25 23c0 14 -10 24 -25 24s-25 -10 -25 -24c0 -13 10 -23 25 -23z" />
    <glyph glyph-name="uniF107" unicode="&#xf107;" 
d="M290 218c19 0 32 -14 36 -30c1 -3 1 -8 1 -11v-24c0 -4 -1 -8 -2 -12c-4 -18 -19 -30 -36 -30c-26 0 -41 22 -41 52c0 31 15 55 42 55zM0 448h512v-512h-512v512zM184 81v228h-42v-228h42zM332 81v0h38c-1 11 -2 30 -2 47v193h-41v-93h-1c-7 12 -23 22 -46 22
c-40 0 -74 -33 -74 -88c0 -51 31 -84 70 -84c24 0 44 11 54 29h1z" />
    <glyph glyph-name="uniF142" unicode="&#xf142;" horiz-adv-x="247" 
d="M-8 448zM184 448v0h5c16 -2 10 -35 22 -49c4 13 6 28 15 35s30 7 17 -20s4 -42 0 -64s-17 -18 -22 -32s3 -46 -7 -60c-9 -13 -12 -32 -7 -49v0c19 -43 31 -91 31 -142c0 -57 -14 -64 -33 -64s-31 58 -71 59s-71 -51 -96 -51c-14 0 -17 8 -16 30c0 7 0 15 1 22
c-2 -4 -4 -7 -6 -7c-7 0 -19 4 -17 16s21 20 22 41s-8 24 -7 47c1 22 28 29 37 78c7 59 8 147 1 162c24 -14 82 -66 127 -140c10 -10 29 2 30 17c1 17 -1 37 -12 38s-19 11 -30 12s-22 -9 -27 5s13 20 27 22c-12 12 -20 27 -25 41s-9 27 6 33s14 -24 31 -37
c-5 19 -6 28 -6 39c0 10 -1 18 10 18v0zM118 286c-2 0 -3 -1 -5 -1c-15 -2 -35 -15 -37 -31c-1 -7 1 -13 4 -19v0c2 -4 5 -7 8 -10v-1h1v0l1 -1c5 -4 11 -6 17 -6h3v0c3 0 8 1 11 2c4 1 7 2 11 4v1c7 4 13 9 16 16c0 1 1 2 1 3l1 1v0v1v0c1 3 2 5 2 8v3v0v4v4v0
c0 2 -2 4 -3 6v0c-6 11 -18 16 -31 16v0zM161 272v0c-1 0 -2 -1 -3 -1c1 -3 3 -7 3 -11c2 -24 -16 -45 -40 -50c-17 -4 -38 1 -47 17c0 1 -2 2 -2 3c-3 -2 -5 -4 -8 -6c-6 -30 -45 -198 -25 -200s48 51 93 51c46 0 63 -60 74 -60s19 -4 20 64s-41 155 -65 193zM38 176
c-4 0 -13 -15 -13 -25c0 -8 4 -15 7 -23c2 14 4 28 7 41c0 5 0 7 -1 7z" />
    <glyph glyph-name="uniF135" unicode="&#xf135;" horiz-adv-x="325" 
d="M-8 448zM105 104c0 0 -17 -11 12 -14c35 -4 52 -3 91 4c0 0 10 -6 24 -12c-86 -37 -195 3 -127 22v0zM94 152c0 0 -19 -14 10 -17c37 -4 67 -4 118 6c0 0 7 -7 18 -11c-104 -31 -221 -3 -146 22v0zM183 235c-72 84 79 122 79 122c-96 -56 -78 -73 -55 -106
c25 -35 -29 -63 -29 -63s26 22 5 47zM297 67v0c46 -21 -99 -62 -275 -33c-65 11 31 47 49 35c0 0 -6 0 -16 -2c-9 -2 -39 -12 -23 -19c44 -19 202 -14 252 1c26 8 13 18 13 18zM113 203c0 0 -81 -19 -29 -26c22 -3 65 -2 106 1c33 3 67 9 67 9s-12 -5 -20 -11
c-81 -22 -239 -12 -194 10c38 19 70 17 70 17v0zM257 122c83 43 44 85 17 79c-7 -1 -9 -2 -9 -2s2 3 7 5c53 19 94 -56 -17 -85c0 0 2 2 2 3zM207 448c0 0 45 -46 -44 -117c-72 -57 -16 -90 0 -127c-42 38 -73 71 -52 102c30 46 114 68 96 142v0zM121 4c-52 3 -62 12 -62 12
c50 -8 133 -10 201 3c60 11 65 26 65 26c-3 -38 -125 -46 -204 -41z" />
    <glyph glyph-name="uniF154" unicode="&#xf154;" 
d="M-8 448zM62 311h110c8 0 14 -8 12 -16l-18 -81c-1 -6 -7 -11 -13 -11h-110c-8 0 -15 9 -13 17l19 81c1 6 7 10 13 10v0zM32 181h109c8 0 15 -9 13 -17l-19 -81c-1 -6 -6 -10 -12 -10h-110c-8 0 -15 8 -13 16l19 81c1 6 7 11 13 11zM322 388h55c9 0 16 -10 12 -18
l-151 -324c-2 -4 -7 -8 -12 -8h-55c-9 0 -16 11 -12 19l151 324c2 4 7 7 12 7v0zM444 388h55c9 0 16 -10 12 -18l-151 -324c-2 -4 -7 -8 -12 -8h-55c-9 0 -16 11 -12 19l151 324c2 4 7 7 12 7v0z" />
    <glyph glyph-name="uniF129" unicode="&#xf129;" horiz-adv-x="330" 
d="M0 304c0 0 -3 -66 96 -163c99 -96 109 -137 104 -162h71s8 111 -104 190c0 0 -75 69 -88 122c0 0 -39 0 -64 20c0 0 -15 8 -15 -7zM152 149c20 -15 36 -31 49 -46l33 33c99 96 96 165 96 165c0 15 -15 8 -15 8c-25 -20 -64 -23 -64 -23c-13 -53 -89 -124 -89 -124
c-5 -2 -10 -9 -15 -11c3 0 5 -2 5 -2zM152 45c-13 15 -30 35 -53 58c-46 -66 -43 -132 -43 -132h71c0 18 2 38 25 74zM129 283h72s9 3 7 -10c-2 -18 -40 -53 -40 -53s-28 26 -41 51c-3 0 -8 12 2 12zM289 357c0 -18 -12 -30 -30 -30s-30 12 -30 30s12 30 30 30
c18 3 30 -12 30 -30zM107 357c0 -18 -13 -30 -31 -30s-30 12 -30 30s12 30 30 30s31 -12 31 -30zM201 382c0 -18 -13 -30 -31 -30s-30 12 -30 30s12 31 30 31c15 0 31 -13 31 -31z" />
    <glyph glyph-name="uniF12A" unicode="&#xf12a;" horiz-adv-x="492" 
d="M247 105h-28v138h28v-138zM295 216v0v-43h35c9 0 12 10 12 17v13c0 9 -3 13 -12 13h-35zM352 105l-28 45h-27v-45h-29v138h30h44c16 0 27 -11 27 -27v-35c0 -13 -7 -25 -18 -29l33 -47h-32zM492 105h-29l-9 28h-34l11 24h16l-16 55l-32 -107h-28l41 138h10h19h10z
M197 134v108h-27v-102c0 -16 -8 -17 -10 -18c-3 -1 -10 -2 -10 -2l7 -24c46 2 40 38 40 38zM0 242c0 0 -1 -28 41 -69s45 -57 43 -68h30s3 47 -44 80c0 0 -32 29 -37 51c0 0 -16 0 -27 9c0 0 -6 3 -6 -3zM64 177c9 -6 15 -14 20 -20l14 14c42 41 41 70 41 70c0 6 -7 3 -7 3
c-11 -9 -26 -10 -26 -10c-5 -22 -38 -52 -38 -52c-2 -1 -4 -3 -6 -4c1 0 2 -1 2 -1zM64 133c-5 6 -12 14 -22 24c-19 -28 -19 -55 -19 -55h30c0 7 1 16 11 31zM54 233h30s4 1 3 -4c-1 -7 -17 -23 -17 -23s-12 11 -17 22c-1 0 -3 5 1 5zM122 264c0 -7 -6 -13 -13 -13
s-13 6 -13 13s6 13 13 13c7 1 13 -6 13 -13zM45 264c0 -7 -6 -13 -13 -13s-13 6 -13 13s6 13 13 13s13 -6 13 -13zM84 275c0 -7 -6 -13 -13 -13s-12 6 -12 13s5 13 12 13c6 0 13 -6 13 -13z" />
    <glyph glyph-name="uniF10C" unicode="&#xf10c;" horiz-adv-x="489" 
d="M88 190l-9 9c-29 29 -38 71 -27 108c-29 7 -51 33 -51 64c0 36 29 65 65 65c33 0 60 -24 65 -55c35 8 73 0 101 -28l4 -4l-48 -48l-4 3c-16 16 -41 16 -57 0s-16 -41 0 -57l9 -9l49 -48l51 -51l-48 -49l-52 51l-48 49zM142 244l51 51l49 48l9 10c29 29 70 38 107 27
c4 32 32 56 65 56c36 0 66 -29 66 -65c0 -33 -25 -61 -57 -65c11 -37 1 -78 -28 -107l-3 -4l-49 49l4 4c16 16 16 40 0 56s-41 16 -57 0l-9 -9l-48 -48l-52 -52l-48 49zM360 0c-37 -11 -80 -2 -109 27l-4 4l49 48l3 -4c16 -16 41 -16 57 0s16 41 0 57l-9 9l-49 49l-51 51
l49 48l51 -51l48 -48l9 -10c28 -28 38 -66 29 -102c32 -4 56 -32 56 -65c0 -36 -29 -65 -65 -65c-32 0 -58 22 -64 52zM341 136l-51 -51l-48 -49l-10 -9c-28 -28 -67 -38 -103 -29c-7 -29 -33 -50 -64 -50c-36 0 -65 29 -65 65c0 31 21 57 50 64c-9 36 1 75 29 103l3 4
l49 -48l-4 -4c-16 -16 -16 -41 0 -57s41 -16 57 0l9 10l49 48l51 51l48 -48z" />
    <glyph glyph-name="uniF12F" unicode="&#xf12f;" 
d="M0 448h512v-512h-512v512zM282 357c-14 -21 -16 -47 -6 -70c10 -24 31 -43 56 -52c1 0 2 -1 3 -1h1c1 0 3 -1 5 -1c68 -13 86 34 91 41c-16 -23 -44 -28 -77 -20c-3 1 -5 1 -8 2s-6 3 -9 4c-6 3 -12 6 -17 10c-30 23 -48 66 -29 101zM227 17c159 -29 206 96 206 96
c-39 -51 -108 -64 -173 -49c-2 1 -5 1 -7 2c-1 0 -1 1 -2 1c-2 1 -5 1 -7 2h-1c-2 1 -4 1 -6 2c-1 0 -1 1 -2 1c-2 1 -5 2 -7 3l-1 1c-2 1 -4 1 -6 2c-1 0 0 1 -1 1c-1 1 -4 1 -5 2s-2 1 -3 2c-2 1 -3 2 -5 3c-1 0 -1 1 -2 1c-2 1 -4 3 -6 4c-1 0 -1 1 -2 1c-2 1 -3 2 -5 3
c-1 0 -1 1 -2 1c-2 1 -2 3 -4 4c-1 1 -1 0 -2 1s-3 2 -4 3c-1 0 -1 2 -2 2c-2 1 -3 3 -5 4l-1 1l-5 5c-1 1 -1 1 -2 1l-4 4l-1 1l-5 5v1l-5 5c0 1 -1 2 -1 2l-4 4c0 1 -1 1 -1 2c-1 2 -3 3 -4 5c-36 49 -50 118 -21 174l-25 -33c-33 -47 -29 -109 -4 -159c1 -1 1 -3 2 -4
c0 -1 1 -1 1 -2l1 -1c0 -1 1 -2 1 -3c1 -1 2 -3 3 -4c0 -1 1 -1 1 -2c1 -1 2 -3 3 -4c0 -1 1 -1 1 -2c1 -2 3 -4 4 -6v0l1 -1c1 -2 2 -3 3 -5c0 -1 2 -1 2 -2c1 -1 2 -3 3 -4c0 -1 1 0 1 -1c2 -2 3 -4 5 -6v0h1c2 -2 2 -3 4 -5c0 -1 1 -1 2 -2l4 -4c1 0 0 -1 1 -1
c2 -2 4 -3 6 -5v0l1 -1c2 -1 2 -3 4 -4c1 -1 1 0 2 -1s3 -2 4 -3l2 -2s3 -2 5 -3c1 0 0 -1 1 -1l1 -1c1 -1 3 -2 4 -3c1 0 1 -1 2 -1c2 -1 5 -3 7 -4c1 0 1 -1 2 -1c2 -1 3 -2 5 -3c1 -1 2 -1 3 -1c1 -1 2 -1 3 -2l1 -1h2l6 -3l1 -1c2 -1 5 -1 7 -2c1 0 0 -1 1 -1
c2 -1 5 -1 7 -2v-1c2 -1 5 -1 7 -2c1 0 1 -1 2 -1c2 -1 4 -2 7 -2zM291 132c123 -20 151 74 151 74c-26 -37 -75 -55 -128 -41c-2 1 -5 1 -7 2c-1 0 -1 1 -2 1c-2 1 -3 1 -5 2h-2c-2 1 -3 2 -5 3h-2l-6 3c-1 1 -2 1 -3 2c-1 0 -1 1 -2 1c-1 1 -3 1 -4 2l-1 1c-2 1 -3 2 -5 3
c0 0 -1 1 -2 1c-1 1 -2 1 -3 2c-2 2 -5 2 -7 4c-1 0 -1 2 -1 2c-23 18 -41 43 -50 71c-9 29 -8 62 8 89l-19 -27c-24 -34 -23 -81 -4 -117c3 -6 7 -11 11 -17c4 -5 7 -11 12 -15c2 -2 3 -4 5 -6l2 -1l5 -5v-1v0c2 -2 5 -3 7 -5l1 -1c2 -2 5 -3 7 -5v0c1 -1 2 -1 3 -2
c1 0 1 -1 1 -1c2 -1 3 -2 5 -3h1c1 -1 3 -2 4 -3c1 0 1 -1 2 -1c1 -1 2 0 3 -1v-1c2 -1 5 -1 7 -2l1 -1c2 -1 3 -1 5 -2c1 0 2 -1 3 -1l4 -2h3c2 -1 5 -2 7 -2z" />
    <glyph glyph-name="uniF130" unicode="&#xf130;" horiz-adv-x="508" 
d="M32 322c-45 -65 -39 -149 -5 -218c1 -2 2 -3 3 -5c1 -1 0 -2 1 -3c0 -1 1 0 1 -1c1 -1 1 -3 2 -4c1 -2 2 -3 3 -5c1 -1 1 -2 2 -3c1 -2 3 -4 4 -6c1 -1 1 -2 2 -3c2 -3 3 -5 5 -8v0l1 -1c2 -2 3 -5 5 -7l2 -2c2 -2 3 -4 5 -6l2 -2c2 -2 4 -5 6 -7v-1v0l7 -7l2 -2l5 -5
c1 -1 2 -1 3 -2l7 -7v0l1 -1c2 -2 5 -3 7 -5l2 -2c2 -1 4 -4 6 -5c1 -1 2 -1 3 -2c2 -1 4 -3 6 -4l2 -2h1c2 -1 4 -3 6 -4l2 -2l9 -6c1 -1 2 -1 3 -1c2 -1 5 -3 7 -4c1 -1 3 -1 4 -2c2 -1 3 -2 5 -3h1c1 0 1 -1 2 -1c3 -1 5 -3 8 -4c1 0 1 -1 2 -1l9 -3c1 0 1 -1 2 -1l9 -3
l1 -1c3 -1 7 -2 10 -3c1 0 1 -1 2 -1c3 -1 7 -2 10 -3c217 -40 280 131 280 131c-53 -69 -147 -87 -236 -67c-3 1 -7 2 -10 3c-1 0 -1 1 -2 1c-3 1 -7 2 -10 3h-1l-9 3c-1 0 -1 1 -2 1c-3 1 -6 3 -9 4c-1 0 -1 1 -2 1c-3 1 -5 2 -8 3c-1 0 -1 1 -2 1c-2 1 -4 3 -6 4
c-1 1 -3 1 -4 2c-2 1 -5 3 -7 4c-1 0 -1 1 -2 1c-3 2 -7 4 -10 6c-1 1 -1 0 -2 1c-2 1 -5 3 -7 5c-1 0 -1 1 -2 1c-2 1 -4 3 -6 5c-1 1 -2 1 -3 2c-2 1 -4 2 -6 4l-2 2c-2 2 -5 4 -7 6l-1 1l-7 7l-2 2c-2 2 -4 3 -6 5l-2 2c-2 2 -4 5 -6 7h-1c-2 2 -4 5 -6 8l-2 2l-5 5
c-1 1 0 2 -1 3c-2 2 -4 5 -6 7c-50 68 -68 160 -28 237zM172 376c-33 -47 -31 -110 -6 -159c4 -8 10 -16 15 -24c5 -7 11 -15 17 -21c2 -3 4 -5 7 -7l2 -2c2 -2 4 -5 7 -7v0h1c3 -2 5 -6 8 -8c1 -1 1 0 2 -1c3 -2 6 -5 9 -7h1c1 -1 3 -2 4 -3c1 0 1 -1 2 -1c2 -1 4 -3 6 -4
l1 -1l6 -3c1 0 2 -1 3 -1c1 -1 3 -1 4 -2v-1c3 -1 6 -3 9 -4h2c2 -1 5 -2 7 -3c1 0 2 -1 3 -1c2 -1 5 -2 7 -3c1 0 2 -1 3 -1c3 -1 6 -1 9 -2c168 -28 207 101 207 101c-35 -50 -103 -75 -175 -56c-3 1 -7 2 -10 3c-1 0 -1 1 -2 1c-2 1 -5 1 -7 2c-1 0 -2 2 -3 2
c-2 1 -5 1 -7 2c-1 0 -1 1 -2 1c-3 1 -6 3 -9 4c-1 1 -3 2 -4 3c-1 0 -2 1 -3 1c-2 1 -3 2 -5 3l-2 1c-2 1 -4 3 -6 4c-1 0 -1 1 -2 1c-1 1 -4 2 -5 3c-3 2 -6 5 -9 7c-1 1 -1 0 -2 1c-32 25 -56 59 -68 98c-12 40 -11 85 11 122zM289 417c-19 -28 -21 -64 -8 -95
c14 -33 43 -59 77 -71c1 -1 3 -1 4 -1s1 -1 2 -1c2 -1 4 -2 6 -2c93 -18 117 48 124 58c-22 -32 -59 -40 -104 -29c-4 1 -8 3 -11 4c-4 2 -9 3 -13 5c-8 4 -16 9 -23 14c-41 31 -66 90 -39 138z" />
    <glyph glyph-name="uniF16F" unicode="&#xf16f;" horiz-adv-x="425" 
d="M-38 448zM0 437h425v-426h-425v426zM323 244h1c-18 0 -33 -5 -43 -15s-16 -23 -16 -38c0 -16 4 -29 13 -38s20 -16 35 -22l10 -4c9 -4 16 -7 21 -11s8 -9 8 -16c0 -6 -2 -10 -7 -14s-12 -5 -20 -5c-10 0 -18 1 -24 6s-11 11 -15 18l-33 -19c6 -12 15 -21 27 -29
s28 -12 46 -12c19 0 35 4 47 14s19 24 19 42c0 16 -5 29 -14 38s-22 18 -39 25l-10 4c-9 4 -15 7 -19 10s-5 8 -5 14c0 5 2 9 5 12s7 5 13 5s11 -1 15 -4s8 -7 11 -13l31 20c-6 11 -14 20 -23 25s-21 7 -34 7zM191 242h1v-136c0 -10 -2 -16 -6 -20s-9 -5 -16 -5s-12 2 -16 6
s-6 8 -9 14l-34 -19c5 -10 12 -19 22 -26s22 -11 38 -11c18 0 33 5 44 15s16 25 16 45v137h-40z" />
    <glyph glyph-name="uniF143" unicode="&#xf143;" horiz-adv-x="430" 
d="M-8 448zM251 442v0l-1 -137l100 134l80 -19l-104 -133l103 -142l-79 -25l-100 147v-132l-75 -12v312zM79 366v0c1 0 2 -1 3 -1l57 -37v0c7 4 13 7 21 10v-31c-42 -19 -71 -61 -71 -110c0 -66 55 -120 121 -120c47 0 87 27 107 66c17 -24 29 -44 29 -44c1 -1 2 -1 3 -1
l7 3l20 -34c1 -2 0 -3 -1 -4l-30 -30c-1 -1 -2 -2 -4 -1l-56 37c-11 -7 -23 -13 -36 -16l-16 -63c0 -2 -1 -3 -3 -3h-42c-2 0 -4 1 -4 3l-13 63c-13 3 -25 9 -36 15l-56 -34c-2 -1 -4 -1 -5 0l-29 30c-1 1 -2 3 -1 5l36 55c-7 12 -12 24 -15 38l-62 15c-2 0 -3 2 -3 4v42
c0 2 1 4 3 4l64 13c4 12 9 23 15 33l-35 58c-1 2 -1 3 0 4l30 30c1 1 1 1 2 1v0z" />
    <glyph glyph-name="uniF122" unicode="&#xf122;" horiz-adv-x="480" 
d="M478 189c3 -4 3 -6 -3 -8c-5 -1 -52 -14 -65 -18c19 -26 56 -75 59 -80c4 -6 0 -8 -6 -11s-146 -52 -156 -55c-12 -4 -18 -6 -26 5c-6 8 -38 66 -54 95c-30 -8 -85 -22 -101 -26c-15 -4 -21 6 -24 12s-94 202 -100 215s1 17 7 17s86 7 96 7s11 -1 16 -8l116 -194l145 35
c-8 11 -44 63 -48 68c-4 6 0 9 6 10s62 10 67 11s9 2 17 -7s51 -64 54 -68zM214 135c2 0 3 1 1 4s-108 188 -108 188c-1 2 -1 2 -4 2s-78 -7 -79 -7s-1 -2 0 -4s98 -202 98 -203c1 -1 1 -2 5 -1s85 21 87 21zM444 92c-1 2 -46 62 -48 66s-3 3 -7 2l-142 -37s44 -75 47 -80
s5 -5 8 -4s136 47 140 48c4 2 3 3 2 5zM453 192c3 1 5 2 4 4s-38 48 -41 52s-5 3 -7 3c-2 -1 -50 -10 -53 -10s-2 -2 -1 -4l43 -58s52 12 55 13z" />
    <glyph glyph-name="uniF123" unicode="&#xf123;" horiz-adv-x="501" 
d="M314 35c-4 6 -55 94 -55 94l166 43c4 1 5 2 8 -2s55 -75 57 -77s3 -4 -2 -6s-161 -55 -164 -56s-6 -2 -10 4zM501 108c-16 21 -37 50 -51 69c9 2 32 9 51 14v-83zM450 279c3 1 4 1 7 -3s33 -42 44 -56v-9h-1l-64 -16l-50 68c-1 2 -2 5 1 5s60 10 63 11zM93 387
c-9 0 -57 -4 -88 -7c5 13 12 24 23 35c18 18 40 28 66 28h313c26 0 49 -10 67 -28s27 -40 27 -66v-106c-15 18 -30 37 -35 43c-9 11 -13 9 -19 8s-70 -12 -78 -13s-13 -3 -8 -10c4 -6 48 -67 57 -80l-171 -41l-135 226c-5 8 -7 12 -19 11zM330 5c10 3 133 47 171 61v-31
c0 -26 -9 -48 -27 -66s-41 -28 -67 -28h-313c-26 0 -48 10 -66 28s-28 40 -28 66v263c34 -73 87 -187 89 -192c3 -7 11 -17 29 -13c19 4 83 21 118 30c19 -34 56 -102 63 -112c9 -13 17 -10 31 -6zM118 119c-5 -1 -4 -1 -5 1s-96 199 -113 233c0 4 1 7 1 10c16 1 87 8 90 8
s3 -1 4 -3c0 0 125 -215 127 -219s1 -6 -1 -6s-98 -23 -103 -24z" />
    <glyph glyph-name="uniF113" unicode="&#xf113;" horiz-adv-x="491" 
d="M389 246c18 -6 27 -17 27 -32c0 -10 -5 -18 -12 -23c-7 -6 -18 -10 -32 -10s-26 5 -38 11c0 3 1 8 3 12s3 7 6 9c11 -5 20 -8 29 -8c4 0 7 1 9 2s3 3 3 5c0 4 -4 8 -10 10l-11 2c-17 6 -26 16 -26 30c0 11 4 18 11 24s17 11 29 11c6 0 13 -1 19 -2c7 -2 13 -6 18 -9
c0 -4 0 -7 -2 -12c-2 -4 -5 -8 -7 -10c-12 5 -21 7 -28 7c-3 0 -5 -1 -7 -2c-1 -1 -2 -3 -2 -4c0 -3 2 -5 7 -7l14 -4v0zM299 246c18 -6 26 -17 26 -32c0 -10 -4 -18 -10 -23c-7 -6 -18 -10 -32 -10s-27 5 -39 11c0 3 1 8 3 12s4 7 7 9c11 -5 20 -8 29 -8c4 0 6 1 8 2
s3 3 3 5c0 4 -3 8 -9 10l-11 4c-17 6 -25 16 -25 30c0 11 3 19 10 25s17 10 29 10c6 0 13 -1 19 -2c7 -2 13 -5 18 -8c0 -4 0 -8 -2 -13c-2 -4 -4 -8 -6 -10c-12 5 -22 8 -29 8c-3 0 -4 -2 -6 -3c-1 -1 -3 -3 -3 -4c0 -3 3 -5 8 -7l12 -6v0zM234 245c0 -9 -2 -16 -4 -22h-53
c0 -5 1 -10 4 -13s8 -5 14 -5c3 0 8 0 12 1s10 2 15 4c4 -4 7 -11 8 -18c-11 -7 -23 -12 -39 -12c-9 0 -16 2 -21 5s-11 6 -14 11c-3 4 -7 11 -8 17s-2 15 -2 22c0 9 1 15 3 21s5 13 9 17c3 4 9 8 14 11s13 6 20 6c6 0 12 -3 17 -5c4 -2 10 -5 13 -9c4 -4 6 -9 8 -14
s4 -11 4 -17zM178 243v0v-1h27v2c0 5 -1 12 -3 15s-6 6 -10 6s-8 -2 -10 -5s-4 -11 -4 -17zM488 255l3 -1v-21l-4 -2c-4 -1 -6 -3 -8 -6c-4 -4 -6 -11 -6 -18v-35c0 -14 -3 -24 -10 -31c-6 -5 -13 -9 -22 -9h-9v27l3 1c3 1 5 2 6 4c2 3 4 9 4 14v29c0 11 1 20 4 26
c2 4 5 8 10 11c-6 5 -10 11 -12 18c-2 6 -2 14 -2 23v25c0 6 -1 12 -3 14c-1 1 -3 4 -7 5l-4 1v25h9h6c7 0 12 -4 16 -8c5 -5 9 -12 11 -21c1 -5 1 -9 1 -13v-30c0 -9 2 -17 5 -21c2 -2 3 -4 9 -7zM50 132v0c-8 0 -16 5 -23 11c-8 9 -8 21 -8 30v35c0 9 -3 15 -6 18
c-1 1 -4 4 -10 7l-3 1v21l2 1c7 3 10 5 11 7c3 3 6 10 6 20v32c0 3 0 7 1 11c1 7 5 16 10 21c4 4 9 8 14 8h2h17v-28h-8c-3 -1 -5 -2 -5 -3c-2 -2 -3 -8 -3 -14v-25c0 -10 0 -18 -2 -23c-2 -6 -7 -13 -12 -18c5 -3 8 -7 10 -11c3 -6 5 -14 5 -26v-29c0 -4 1 -11 3 -14
c0 -1 2 -3 6 -4l3 -1v-27h-10zM135 207v0c1 -4 3 -9 3 -12c0 -4 -1 -7 -1 -8c-7 -1 -16 -2 -22 -2c-9 0 -15 2 -19 6s-6 11 -6 21v122v17v0h1h12c6 0 12 0 14 -3s5 -8 5 -15v-116c0 -6 2 -10 8 -10h5z" />
    <glyph glyph-name="uniF108" unicode="&#xf108;" 
d="M0 448h512v-512h-512v512zM281 86v37h-100v207h-45v-244h145zM406 223v0v42c-4 1 -7 1 -11 1c-19 0 -39 -13 -48 -38h-1l-2 34h-39c1 -16 2 -33 2 -57v-119h44v91c0 5 1 10 2 14c4 20 19 33 40 33c5 0 9 0 13 -1z" />
    <glyph glyph-name="uniF144" unicode="&#xf144;" horiz-adv-x="497" 
d="M-8 448zM277 335c17 0 32 -7 44 -19c12 12 28 19 45 19s33 -7 45 -20s19 -28 19 -46v-111c-2 -19 -9 -36 -23 -50v0c-16 -16 -36 -24 -58 -24h-146c-18 2 -34 10 -47 23c-15 15 -24 34 -24 56v205h39v-197c0 -26 18 -47 39 -47h131c27 0 49 19 49 41l-1 104
c0 7 -2 12 -7 17s-9 8 -16 8s-12 -3 -17 -8s-7 -10 -7 -17v-89h-41v89c0 7 -2 12 -7 17s-10 8 -17 8s-11 -3 -16 -8s-7 -10 -7 -17v-89h-41v89c0 18 7 33 19 46s28 20 45 20v0zM231 3c-92 0 -172 70 -172 162v112v29h-59v142l324 -1c92 0 173 -71 173 -163v-281h-266z
M459 78v206c0 69 -60 125 -135 125h-77v0l-209 1v-67h23c16 0 35 -15 35 -37v-141c0 -69 61 -125 135 -125h184c24 0 44 15 44 38v0z" />
    <glyph glyph-name="uniF10D" unicode="&#xf10d;" horiz-adv-x="425" 
d="M240 292l74 -45v-244l-102 -62l-101 62v244l73 45v-285l28 -17l28 17v285zM212 443l213 -129v-244l-55 -32v243l-1 1l-157 95l-157 -95v-245l-55 33v244zM425 314l-55 -33l-158 96l-157 -95l-55 32l212 129zM240 292l74 -45l-74 -45v90zM111 247l73 45v-89z" />
    <glyph glyph-name="uniF118" unicode="&#xf118;" 
d="M-8 448zM501 378c7 0 11 -3 11 -11c0 -24 -11 -34 -22 -44s-24 -17 -36 -35c-8 -12 -10 -42 -17 -66c-6 -22 -12 -48 -18 -65c-6 -18 -1 -58 18 -63c-21 -16 -56 -12 -69 8c-23 -6 -25 -34 -44 -45c-15 -9 -30 -12 -50 -17c-11 -2 -21 -3 -18 1c11 16 23 29 30 48
c-44 6 -87 15 -125 10c-29 -4 -45 -21 -64 -32c-41 -24 -85 -18 -89 -9s15 14 18 20c-15 -2 -18 0 -26 8c24 28 76 10 94 28c17 17 17 29 33 43c20 18 45 32 67 39c34 11 72 13 110 34c50 28 62 108 117 131c19 8 40 7 57 11s15 6 23 6v0zM499 374c-1 0 -2 -1 -3 -1l-1 -1
l-1 -1c-1 -1 -3 -2 -5 -3c-1 -1 0 -1 0 -2s1 -1 1 -2s1 -1 2 -2c1 0 1 -1 1 -1c1 -1 4 -1 5 -1h2s3 -1 4 -1s2 1 2 1l1 1v0v3v1v5l-1 2l-2 2h-2h-2h-1v0zM482 360c0 0 -1 0 -2 -1c-6 -6 -17 -19 -21 -31c-1 -3 1 -2 2 0c4 12 17 26 21 30c1 1 1 2 0 2v0zM484 357
c0 0 -1 0 -2 -1c-5 -6 -14 -17 -16 -29c-1 -3 2 -2 2 0c2 13 13 23 16 28c1 1 1 2 0 2v0zM486 355l-2 -2c-4 -7 -10 -14 -11 -27c0 -3 2 -2 2 0c1 13 8 22 11 27c1 1 1 2 0 2zM488 353c0 0 0 -1 -1 -2c-4 -7 -7 -12 -7 -25c0 -3 1 -2 1 0c0 13 5 20 7 25c1 1 1 2 0 2v0z
M445 347c-11 0 -18 -6 -20 -15c9 -8 28 -1 25 15h-5zM407 137c-7 -8 -22 -19 -25 -32c5 -9 27 -14 39 -11c-6 6 -13 31 -14 43z" />
    <glyph glyph-name="uniF155" unicode="&#xf155;" horiz-adv-x="393" 
d="M378 443c16 0 15 -18 15 -18v-466s-13 -18 -13 -18h-365s-15 19 -15 19v465c0 16 13 18 13 18h365zM170 45c6 0 10 7 10 15s-4 15 -10 15s-11 -7 -11 -15s5 -15 11 -15zM223 45c6 0 11 7 11 15s-5 15 -11 15s-10 -7 -10 -15s4 -15 10 -15zM315 63c3 24 1 218 -3 237
s-1 26 -15 39l-24 7l-22 -7s-42 -37 -54 -88c0 0 -14 23 -27 46c-11 19 -25 38 -31 43l-24 5l-23 -6s-14 -9 -15 -39s0 -237 0 -237s0 -13 9 -18h52s5 2 0 15s-29 162 -18 190s30 5 62 -120c0 0 15 -48 30 2c11 38 35 112 35 112s23 51 25 -37c1 -87 -18 -137 -22 -150
s1 -13 22 -12s33 0 33 0s8 0 10 18z" />
    <glyph glyph-name="uniF119" unicode="&#xf119;" horiz-adv-x="217" 
d="M119 -50l-13 5s3 31 -4 52c-1 2 0 4 2 9c1 4 1 8 2 12c2 8 3 31 3 30c1 -5 1 -11 1 -15c1 -12 6 -26 14 -31c0 0 -1 -1 -4 -11c-4 -16 -1 -51 -1 -51zM213 242c26 -154 -86 -228 -86 -228c-13 6 -16 33 -17 59c3 35 4 79 3 126c-1 22 0 210 -6 233v0s8 -17 15 -27
c6 -14 66 -51 91 -163zM111 120c0 0 -3 -22 -2 -47c-2 -32 -5 -55 -9 -63c0 0 -106 72 -100 199s80 190 95 201c9 10 10 14 11 24v-2z" />
    <glyph glyph-name="uniF11A" unicode="&#xf11a;" horiz-adv-x="486" 
d="M-8 448zM29 448v0c19 0 42 -14 54 -22c5 -3 11 -10 16 -12c8 -1 16 -1 24 -2c15 -4 31 -6 43 -14c57 -36 94 -73 128 -133c7 -13 10 -27 16 -41c8 -21 19 -41 28 -61c5 -9 7 -20 13 -28c2 -3 9 -4 13 -6c11 -6 24 -11 35 -18c19 -13 37 -29 54 -44c6 -6 10 -14 16 -21v-3
c-5 -2 -10 -3 -15 -5c-12 -3 -23 -3 -34 -6c-7 -2 -15 -4 -22 -5l1 -1c4 -13 27 -24 37 -32c13 -10 25 -21 35 -35l10 -11c2 -3 3 -8 5 -11v-1c-3 1 -32 3 -66 14c-25 8 -72 24 -73 25c-121 44 -112 48 -129 59c-10 6 -16 15 -24 21c-15 12 -33 31 -43 48
c-5 10 -8 19 -13 29v1c-2 -3 -2 -6 -3 -10c-4 -18 0 -37 -15 -44c-17 -7 -30 12 -35 21c-17 30 -22 79 -10 119c3 9 3 19 8 26c-1 6 -6 9 -9 13c-5 7 -8 14 -12 21c-7 15 -12 32 -17 48c-2 6 -2 13 -5 19c-4 9 -11 18 -17 26c-8 12 -30 35 -21 58c5 14 15 18 27 18v0z
M113 392v0h-3c-11 2 -23 -10 -12 -17c10 -10 14 -23 20 -36c16 9 22 32 8 45c-4 3 -8 8 -13 8z" />
    </font>
</defs>
</svg>
